<svg xmlns="http://www.w3.org/2000/svg" data-name="Layer 1" viewBox="0 0 750 750" width="550" height="550"><defs><clipPath id="a"><path fill="none" d="M481.55 232.12c-55.83 2-78.55-7.86-112.83-26-.4-17.83-2-69.49-2-69.49l-125.89-35s-7.94 30.78-15.22 60.32c-73.42 11.68-139.71 80.89-120.06 158.13 26 102-46.35 222 51.81 272s290.16 94 388.16 0 158.03-367.96-63.97-359.96Z"></path></clipPath></defs><path fill="#eaf5f8" d="M545.55 592.12c-98 94-290 50-388.16 0s-25.84-170-51.81-272c-22-86.61 64-163.13 147-159.75 1.47.06 2.94.14 4.41.25a120.23 120.23 0 0 1 38.89 9.5c92.29 40 99.67 65.1 185.71 62 221.96-8 161.96 266 63.96 360Z" class="coloreaf5f8 svgShape"></path><path fill="#eaf5f8" d="M476.67 195.16a8.35 8.35 0 0 1-6.4 9.23c-16.92 3.91-66.13 10.33-107.3-33.12-48.07-50.75 107.66-23.27 113.7 23.89Z" class="coloreaf5f8 svgShape"></path><g clip-path="url(#a)"><g opacity=".1"><path fill="#1f1f1f" d="M369.36 534.45A26.92 26.92 0 1 0 349 584.31a25.34 25.34 0 0 0 2.49.87L350.22 597l-7.79 1.45c1.9-4.33 2.89-10 2.65-12.46-.46-4.63-4.16-5.43-5.56-4.48-.75.51-3.15 7.79-4.14 8.63-7.57 6.48-9.67 14.63-11.59 19.28-1.06 2.57-7.24 6.37-16.2 10.73-1.95-3.56-3.87-5.68-5.5-5.06-5.89 2.24-102.41 7.94-142.44 29.2-9.74 5.17-19.28 73.25-19.28 73.25s34 50.46 37.69 53.1 85.65-64 94.05-68 16.73-14.63 29.3-22.25 21.39-11.79 18.09-25.72c-.28-1.19-.71-2.87-1.25-4.85 5-5 9.22-9.43 12.24-13.09 2.19-2.65 5.13-3.6 6.5-4.69l9.55-.65a3.6 3.6 0 0 0 3.21 3.43 3.59 3.59 0 0 0 3.27-1.42 9 9 0 0 0 2.39-.28c2-.49 8-2 8-2 2.07-.53 3.2-3 2.6-5.58v-.09a4.79 4.79 0 0 0-3.79-3.84l5.26-1c2.29-.42 3.58-2.94 2.94-5.59v-.09a5.6 5.6 0 0 0-3.27-4c2.36-.32 3.67-2.71 3-5.36v-.1a6.29 6.29 0 0 0-2.5-3.62c2.28-.42 4.38-3.34 4.42-5.44.06-3.06-3.17-6.3-5.48-5.63a39.46 39.46 0 0 1-5.72.46 18.47 18.47 0 0 0-2.71.3l.58-5.36a26.91 26.91 0 0 0 10.69-51.82ZM376.85 223.05a35.21 35.21 0 1 0-45.62 53.65q1.33 1.13 2.73 2.1l-10.5 23.2-6.58-.53c4.15-2.21 8.25-5.48 9.62-7.35 2.91-4 .56-7.22-1.22-7.46-.95-.13-5.43 2-6.81 2-10.55-.25-20.53 6.61-25.33 8.92-2.08 1-7.14.38-14.08-1.32v-.18s-.41-11.24-7.3-13.9-76-32.39-127.57-45.18c-12.54-3.11-93.62 8-93.62 8s-9.84 70.6-8.68 75.8 124.84 11.08 135.28 14.2 28.65-4 45.58-.84 44.3 12.36 50.91-3.06l.93-6c7.37.48 12.93 1.12 15.62 2 1.77.58 3.65 3.14 7 3.29l12.71 1.43-.77 1.71a4.73 4.73 0 0 0 2.35 6.26 4.73 4.73 0 0 0 6.27-2.36l2-4.5 6.63.75 1 .19c1.91.35 3.81-1.29 4.28-3.62v-.08a4.34 4.34 0 0 0-1.67-4.61l4.71 1.22c2.05.53 4.07-1.06 4.56-3.49v-.09a5.15 5.15 0 0 0-1.19-4.51c2.07.64 4.06-.83 4.53-3.27v-.09a5.5 5.5 0 0 0-2-5.41 5.48 5.48 0 0 0 3.43-2.51c1.09-2.25-.19-5.77-2.14-6.07a32 32 0 0 1-4.42-1.62 14.22 14.22 0 0 0-2.43-.78l7.17-15.82a35.21 35.21 0 0 0 34.45-60.05Z" class="color1f1f1f svgShape"></path><path fill="#1f1f1f" d="M223.79 337.15a45.77 45.77 0 0 0-8.62 91.12c-.89 1.91-1.95 4.5-2.71 5.24-8.81 8.63-10.9 17.3-19.2 25.73-3.35 3.4-8.72 7.56-15.34 12.14-3.85-2.91-7.07-4.61-8.95-4.07-34.63 9.87-205.54 83.4-228.64 126 0 0 89.86 100.32 95.15 103.59s101-101.06 112.09-107.28 20-20.2 36.51-31.78 34.93-34 27.41-52.12c0 0-1.78-2.12-4.61-5.34 6.58-6 11.78-10.2 14.75-11.78 2.24-1.18 6.85-.28 9.81-4.78l1.5-1.29 4.72 22.47a6.16 6.16 0 0 0 12.05-2.53l-6.1-29.09 6.63-5.65 1.72-1.21c1.85-1.31 2-4.24.46-6.53l-.06-.08a5.07 5.07 0 0 0-5.21-2.37l4.86-2.94c2.11-1.29 2.43-4.28.79-6.67l-.06-.09a6 6 0 0 0-4.75-2.68c2.23-1.21 2.62-4.08 1-6.46l-.06-.09A6.77 6.77 0 0 0 245 436h.08c2.19-.89 3.23-4.6 2.5-6.62-1-2.76-5-4.55-6.84-3.16a38.27 38.27 0 0 1-5 2.38c-.42.19-.92.42-1.45.69l-.55-2.64a45.77 45.77 0 0 0-10-89.45Zm-1.69 107.51a49.49 49.49 0 0 0 1.39-7.24l1.09 5.18Z" class="color1f1f1f svgShape"></path></g><path fill="#002cad" d="M236.23 263.6c.55 14.7-2.08 26.74-5.87 26.88s-7.32-11.66-7.88-26.36 2.08-26.73 5.88-26.87 7.32 11.66 7.87 26.35Z" class="color002cad svgShape"></path><path fill="#0031ff" d="M240.34 262.74c.43 11.25-1.59 20.46-4.49 20.56s-5.6-8.92-6-20.16 1.59-20.46 4.49-20.57 5.58 8.92 6 20.17Z" class="color0031ff svgShape"></path><path fill="#ffffff" d="m263.04 275.83 29.16-3.89.21-11 4.15-11.36-.27-10.08-27.77 4.6-5.61 11.27.13 20.46z" class="colorfff svgShape"></path><path fill="#547ac5" d="m262.44 276.52-.14-21.29 5.81-11.68 28.77-4.76.29 10.89-4.17 11.38-.21 11.41Zm1.07-21 .13 19.63 28-3.73.23-10.67 4.13-11.27-.26-9.27-26.78 4.43Z" class="color547ac5 svgShape"></path><path d="M294 263.24v.07a9 9 0 0 1-6.95 8.44l-7 1.67.45-10.21Z" fill="#000000" class="color000 svgShape"></path><path fill="#002cad" d="M279.19 281.49a4.73 4.73 0 0 1-3.8-5.51l13.7-74.89a4.73 4.73 0 0 1 5.51-3.8 4.73 4.73 0 0 1 3.8 5.51l-13.7 74.88a4.73 4.73 0 0 1-5.51 3.81Z" class="color002cad svgShape"></path><path fill="#9dd0f7" d="M283 215.52a35.21 35.21 0 1 1 47.19-15.92A35.25 35.25 0 0 1 283 215.52Z" class="color9dd0f7 svgShape"></path><path fill="#547ac7" d="M298.62 219.74A35.56 35.56 0 0 1 282.8 216a35.76 35.76 0 1 1 15.82 3.72ZM283.29 215a34.65 34.65 0 1 0-15.66-46.44A34.69 34.69 0 0 0 283.29 215Z" class="color547ac7 svgShape"></path><path fill="#ffffff" d="M286.39 208.76a27.67 27.67 0 1 1 37.08-12.5 27.7 27.7 0 0 1-37.08 12.5Z" class="colorfff svgShape"></path><path fill="#547ac5" d="M298.63 212.2A28.23 28.23 0 1 1 324 196.5a28.11 28.11 0 0 1-25.37 15.7Zm.09-55.34a27.1 27.1 0 1 0 12 2.81 27.14 27.14 0 0 0-12-2.81Z" class="color547ac5 svgShape"></path><path fill="#002cad" d="m296.9 189.61-.6 4.06-15.3-2.26a10.63 10.63 0 0 1 2.13-4.14 29.07 29.07 0 0 1 5.72-4.73 31.19 31.19 0 0 0 4.17-3.2 4.84 4.84 0 0 0 1.29-2.53 3.13 3.13 0 0 0-.45-2.37 3.38 3.38 0 0 0-4.35-.6 4.28 4.28 0 0 0-1.33 2.6l-4.29-1.08c.61-2.36 1.68-4 3.2-4.81a8.27 8.27 0 0 1 5.36-.81 7.49 7.49 0 0 1 5 2.6 6.06 6.06 0 0 1 1.26 4.8 7.87 7.87 0 0 1-1 2.85 12.17 12.17 0 0 1-2.17 2.65 28.42 28.42 0 0 1-3.29 2.48c-1.56 1.06-2.56 1.77-3 2.13a7.23 7.23 0 0 0-1.07 1.08ZM307.81 195.37l.67-4.59-9.32-1.37.57-3.82 12-13 3.67.54-2.13 14.44 2.82.42-.57 3.84-2.82-.42-.7 4.59Zm1.24-8.42 1.15-7.78-6.38 7Z" class="color002cad svgShape"></path><path fill="#ffffff" d="M293.25 271.87s-5.6.36-7.47.46c-5.76.31-7.54-4.63-7.46-5.49.33-3.76 5.3-3.88 7.46-3.86l7.2.06c1.87 0 3.44 1.88 3.54 4.21v.08c.11 2.37-1.33 4.43-3.27 4.54Z" class="colorfff svgShape"></path><path fill="#547ac5" d="M285.26 273a7.6 7.6 0 0 1-5.63-2.28 6.3 6.3 0 0 1-1.91-3.89c.26-3 2.95-4.43 8.06-4.41l7.2.06c2.2 0 4 2.12 4.15 4.79s-1.6 5.12-3.84 5.26c-.05 0-5.62.35-7.48.45Zm.3-9.37c-4.27 0-6.44 1.08-6.64 3.31a5.62 5.62 0 0 0 1.66 3 6.45 6.45 0 0 0 5.17 1.82c1.86-.1 7.46-.45 7.46-.45 1.58-.1 2.79-1.85 2.7-3.91s-1.41-3.7-2.95-3.72l-7.2-.06Z" class="color547ac5 svgShape"></path><path fill="#ffffff" d="m298.65 263.22-11.42-.1c-2.61 0-7.21-2.66-6.51-5.86.6-2.72 4.22-4.35 6.7-4.15l11 .88c2.05.17 3.74 2.23 3.85 4.65v.09c.08 2.47-1.5 4.51-3.62 4.49Z" class="colorfff svgShape"></path><path fill="#547ac5" d="m298.68 263.83-11.43-.1a9 9 0 0 1-6.14-3.11 4.09 4.09 0 0 1-.95-3.49c.7-3.18 4.74-4.83 7.34-4.63l11 .89c2.35.19 4.28 2.48 4.4 5.22a5.3 5.3 0 0 1-1.36 4 3.84 3.84 0 0 1-2.86 1.22ZM287 253.7c-2.3 0-5.21 1.54-5.68 3.69a2.92 2.92 0 0 0 .71 2.48 7.92 7.92 0 0 0 5.21 2.65l11.43.1a2.58 2.58 0 0 0 1.94-.84 4.1 4.1 0 0 0 1-3c-.1-2.2-1.58-4-3.29-4.16l-11-.89Z" class="color547ac5 svgShape"></path><path fill="#ffffff" d="m299.9 254.56-5.45-.44c-2.49-.21-8.2-2.71-8.65-5.19-.9-5 6.13-4.92 8.51-4.55l5.23.81a5.32 5.32 0 0 1 4 5v.09c.18 2.51-1.44 4.45-3.64 4.28Z" class="colorfff svgShape"></path><path fill="#547ac5" d="M300.17 255.17h-.32l-5.45-.44c-2.39-.19-8.65-2.67-9.2-5.69a3.85 3.85 0 0 1 .95-3.56c2-2 6.27-2 8.26-1.69l5.22.81a5.9 5.9 0 0 1 4.55 5.56 5 5 0 0 1-1.35 3.94 3.74 3.74 0 0 1-2.66 1.07Zm-.23-1.22a2.55 2.55 0 0 0 2-.72 3.79 3.79 0 0 0 1-2.92c-.13-2.25-1.71-4.24-3.53-4.52l-5.23-.81c-2-.31-5.69-.22-7.2 1.33a2.69 2.69 0 0 0-.63 2.51c.36 2 5.53 4.48 8.11 4.69Z" class="color547ac5 svgShape"></path><path fill="#ffffff" d="m298.28 245.85-5.95-1.09c-2.13-.37-5.61-2.23-4.82-5 1.21-4.22 5.25-3.73 7.34-3.45a32.76 32.76 0 0 0 4.68.5c2-.18 4.06 2.92 3.55 5.38-.38 1.81-2.8 4-4.8 3.66Z" class="colorfff svgShape"></path><path fill="#547ac5" d="M298.69 246.49a2.92 2.92 0 0 1-.51 0l-5.95-1.09a7.65 7.65 0 0 1-4.87-2.94 3.47 3.47 0 0 1-.42-2.85c1.37-4.77 6-4.15 8-3.88l.67.1a24.94 24.94 0 0 0 3.87.4 3.4 3.4 0 0 1 2.77 1.32 5.27 5.27 0 0 1-3.55 9Zm-.3-1.24c1.6.28 3.77-1.65 4.09-3.22a4.53 4.53 0 0 0-1.14-3.72 2.26 2.26 0 0 0-1.76-.92 24.66 24.66 0 0 1-4.17-.42l-.64-.09c-2.91-.39-5.73-.3-6.67 3a2.19 2.19 0 0 0 .28 1.87 6.48 6.48 0 0 0 4.05 2.39Z" class="color547ac5 svgShape"></path><path fill="#ffffff" d="M251.12 244.94c4.11-3.4 12.12-12.47 22.42-14.78 1.35-.3 5.18-3.45 6.13-3.55 1.79-.2 4.86 2.39 3 6.94-1.31 3.2-7.74 10.9-12.71 13l-4.32 28.22c-4.66 2.84-7.88-.28-10.19-.44C238.44 273.18 123 305 123 305l-1.81-62.41s119.68 10.86 129.93 2.35Z" class="colorfff svgShape"></path><path fill="#547ac5" d="m122.42 305.77-1.85-63.86.68.06c1.19.11 119.54 10.76 129.49 2.51.76-.63 1.65-1.46 2.69-2.42 4.57-4.21 11.46-10.58 20-12.49a16.53 16.53 0 0 0 3.13-1.84 9.83 9.83 0 0 1 3.07-1.72 3.81 3.81 0 0 1 3.22 1.65c.7.93 1.69 3 .39 6.12s-7.57 10.81-12.73 13.2l-4.3 28.17-.24.15c-3.59 2.18-6.44 1.07-8.52.25a8 8 0 0 0-2-.61c-16.68-1.14-131.08 30.3-132.23 30.62Zm-.6-62.54 1.76 61c10.8-3 115.55-31.56 131.9-30.46a8.52 8.52 0 0 1 2.39.7c2 .78 4.25 1.66 7.21 0l4.32-28.27.31-.13c4.77-2 11.15-9.65 12.39-12.69 1.07-2.6.31-4.21-.24-4.94a2.6 2.6 0 0 0-2.12-1.17 15 15 0 0 0-2.53 1.53 14.79 14.79 0 0 1-3.53 2c-8.21 1.84-15 8.07-19.43 12.2-1.05 1-2 1.81-2.74 2.46-10.04 8.28-119.02-1.27-129.69-2.23Z" class="color547ac5 svgShape"></path><path fill="#ffffff" d="M269.4 246.14s-.23 1.16 1.07.84 1.95 2.42 1.95 2.42 1.4 10.26 1.19 11.37-6 13.83-6 13.83-5.4 1-6.42.76.88-16.61.88-16.61-3.48-8.39-3.2-9.35a8.08 8.08 0 0 1 2-3.26 23.91 23.91 0 0 1 3.56-2.5l4.46-.63ZM229.83 263.14c-.43-11.25 1.59-20.46 4.49-20.57l-66.32 1.6 7.29 47 60.56-7.82c-2.85.06-5.6-8.97-6.02-20.21Z" class="colorfff svgShape"></path><path fill="#547ac5" d="m174.82 291.74-7.47-48.11 67-1.62v1.12c-.84 0-2.07 1.53-3 5.66a59.87 59.87 0 0 0-1 14.32c.44 11.62 3.2 19.64 5.41 19.64l.09 1.11Zm-6.17-47 7.11 45.78L234 283c-2.71-2.75-4.42-11.47-4.73-19.82a60.63 60.63 0 0 1 1-14.6 14.34 14.34 0 0 1 2.1-5.39Z" class="color547ac5 svgShape"></path><path fill="#0031ff" d="M230.46 290.69 82 312.23l-8.07-69.66 154.54-5.34h-.11c-3.75.37-6.34 12.36-5.79 27s4 26.43 7.82 26.47Z" class="color0031ff svgShape"></path><path fill="#ffffff" d="m232.07 391.33 16.06-5.28-2.43-8.42 2.8-7.33.38-8.41-.69-1.5-18 5.67-1.61 9.97 3.49 15.3z" class="colorfff svgShape"></path><path fill="#547ac5" d="m231.67 392.05-3.66-16 1.68-10.42 18.8-5.92.95 2.07-.44 8.72-2.73 7.15 2.53 8.76Zm-2.52-16 3.33 14.6 15-4.93-2.33-8.08 2.82-7.42.38-8.18-.43-.93-17.21 5.42Z" class="color547ac5 svgShape"></path><path fill="#002cad" d="M233.91 411.3a4.22 4.22 0 0 1-3.39-4.9l12.19-66.62a4.22 4.22 0 0 1 4.9-3.39 4.21 4.21 0 0 1 3.39 4.9l-12.19 66.63a4.21 4.21 0 0 1-4.9 3.38Z" class="color002cad svgShape"></path><path fill="#9dd0f7" d="M237.34 352.61a31.33 31.33 0 1 1 42-14.16 31.37 31.37 0 0 1-42 14.16Z" class="color9dd0f7 svgShape"></path><path fill="#547ac7" d="M251.19 356.43a32 32 0 1 1 10.24-1.69 32 32 0 0 1-10.24 1.69Zm.1-62.66a30.77 30.77 0 0 0-13.71 58.34 30.77 30.77 0 1 0 13.71-58.34Z" class="color547ac7 svgShape"></path><path fill="#ffffff" d="M240.31 346.6a24.62 24.62 0 1 1 33-11.13 24.65 24.65 0 0 1-33 11.13Z" class="colorfff svgShape"></path><path fill="#547ac5" d="M251.2 349.72a25 25 0 0 1-11.13-2.62 25.19 25.19 0 1 1 19.22 1.29 25.4 25.4 0 0 1-8.09 1.33Zm.09-49.24a24.22 24.22 0 0 0-7.73 1.27 24.06 24.06 0 0 0-3 44.35 24.06 24.06 0 1 0 10.73-45.62Z" class="color547ac5 svgShape"></path><path fill="#002cad" d="m246 332.69-3.88-.57 2.16-14.64a13.51 13.51 0 0 1-5.45 2.21l.52-3.53a11.58 11.58 0 0 0 3.58-1.39 7.29 7.29 0 0 0 2.92-2.88l3.15.46ZM260.13 334.78l-3.88-.57 2.16-14.63a13.55 13.55 0 0 1-5.45 2.2l.52-3.52a11.38 11.38 0 0 0 3.58-1.4A7.23 7.23 0 0 0 260 314l3.15.46Z" class="color002cad svgShape"></path><path fill="#ffffff" d="m249.53 385.72-5.83 1.35a5.45 5.45 0 0 1-6.61-3.34c-.24-3 3.66-3.77 5.37-4l5.69-.9c1.48-.24 3 1 3.35 2.85v.06c.41 1.82-.45 3.63-1.97 3.98Z" class="colorfff svgShape"></path><path fill="#547ac5" d="M242.19 387.8a6 6 0 0 1-3.61-1.17 5.13 5.13 0 0 1-2.05-2.86c-.19-2.42 1.78-4 5.84-4.63l5.69-.9c1.77-.29 3.53 1.16 4 3.28s-.59 4.33-2.38 4.74c-.09 0-4.39 1-5.84 1.35a7.5 7.5 0 0 1-1.65.19Zm6.31-8.48a1.23 1.23 0 0 0-.27 0l-5.69.9c-3.43.55-5 1.68-4.9 3.44a4.56 4.56 0 0 0 1.73 2.14 5.12 5.12 0 0 0 4.21.71l5.83-1.35c1.2-.28 1.9-1.79 1.56-3.36a2.88 2.88 0 0 0-2.47-2.48Z" class="color547ac5 svgShape"></path><path fill="#ffffff" d="m252.65 378.18-9 1.43c-2.06.33-6-1.14-5.91-3.75.11-2.23 2.75-4 4.74-4.17l8.76-.75a3.74 3.74 0 0 1 3.65 3.15v.07c.4 1.94-.57 3.75-2.24 4.02Z" class="colorfff svgShape"></path><path fill="#547ac5" d="M243 380.22a7.43 7.43 0 0 1-4.62-1.71 3.37 3.37 0 0 1-1.24-2.68c.13-2.64 3.15-4.51 5.25-4.69l8.76-.76c1.9-.19 3.77 1.42 4.24 3.59a4.34 4.34 0 0 1-.55 3.4 3.18 3.18 0 0 1-2.12 1.36l-9 1.44a5 5 0 0 1-.72.05Zm8.43-8.74h-.18l-8.76.76c-1.85.15-4.14 1.81-4.23 3.64a2.26 2.26 0 0 0 .86 1.79 6.16 6.16 0 0 0 4.4 1.38l9-1.43a2 2 0 0 0 1.37-.89 3.21 3.21 0 0 0 .4-2.46 3.32 3.32 0 0 0-2.85-2.79Z" class="color547ac5 svgShape"></path><path fill="#ffffff" d="m252.48 371.18-4.36.38c-2 .17-6.82-1.05-7.51-2.95-1.36-3.78 4.19-4.69 6.12-4.71l4.23-.06a4.25 4.25 0 0 1 3.84 3.41v.07c.46 1.96-.56 3.68-2.32 3.86Z" class="colorfff svgShape"></path><path fill="#547ac5" d="M247.77 372.13c-2.18 0-6.89-1.14-7.68-3.33a3.17 3.17 0 0 1 .28-3c1.31-1.89 4.73-2.43 6.35-2.45l4.23-.06a4.82 4.82 0 0 1 4.36 3.84 4.09 4.09 0 0 1-.56 3.35 3.1 3.1 0 0 1-2.27 1.27l-4.35.37Zm3.23-7.73-4.23.05c-1.59 0-4.47.58-5.44 2a2.05 2.05 0 0 0-.15 2c.52 1.45 4.91 2.76 6.94 2.58l4.35-.37a2 2 0 0 0 1.46-.82 2.92 2.92 0 0 0 .39-2.37 3.74 3.74 0 0 0-3.32-3.07Z" class="color547ac5 svgShape"></path><path fill="#ffffff" d="m253.1 364.57-4.84-.07c-1.73 0-4.73-1-4.47-3.32.4-3.49 3.64-3.64 5.33-3.7a26.31 26.31 0 0 0 3.76-.22c1.53-.41 3.59 1.76 3.51 3.77-.06 1.47-1.67 3.55-3.29 3.54Z" class="colorfff svgShape"></path><path fill="#547ac5" d="m253.11 365.13-4.84-.07a6.19 6.19 0 0 1-4.28-1.7 2.85 2.85 0 0 1-.73-2.25c.45-4 4.24-4.13 5.86-4.19h.54a20.56 20.56 0 0 0 3.09-.19 2.78 2.78 0 0 1 2.43.69 4.65 4.65 0 0 1 1.79 3.64c-.09 1.78-1.97 4.07-3.86 4.07Zm0-1.11c1.26 0 2.67-1.77 2.72-3a3.59 3.59 0 0 0-1.37-2.72 1.73 1.73 0 0 0-1.44-.48 18.81 18.81 0 0 1-3.36.23h-.52c-2.31.07-4.49.51-4.79 3.2a1.7 1.7 0 0 0 .45 1.38 5.15 5.15 0 0 0 3.46 1.32Z" class="color547ac5 svgShape"></path><path fill="#ffffff" d="M214.23 365.92c7.44-3.19 11-8.15 18.82-11.33 1-.42 3.63-3.41 4.37-3.62 1.38-.39 4.14 1.25 3.27 5.08-.61 2.7-4.65 9.62-8.3 11.95l.34 22.83c-3.31 2.86-6.26.82-8.11 1-13.55 1.34-100.39 41.72-100.39 41.72L121 380.29s74.63-6.39 93.23-14.37Z" class="colorfff svgShape"></path><path fill="#547ac5" d="m123.72 434.4-3.3-54.62h.54c.74-.07 74.75-6.48 93.05-14.33a44.32 44.32 0 0 0 8.91-5.43 45.16 45.16 0 0 1 9.92-5.91 13.13 13.13 0 0 0 2.2-1.85 8 8 0 0 1 2.22-1.78 3 3 0 0 1 2.83.89 4.82 4.82 0 0 1 1.15 4.85c-.61 2.67-4.48 9.49-8.29 12.12l.34 22.78-.2.17c-2.57 2.22-5 1.72-6.74 1.35a6.27 6.27 0 0 0-1.67-.22c-13.31 1.32-99.35 41.27-100.22 41.67Zm-2.13-53.6 3.15 51.9c9-4.2 86.85-40.15 99.83-41.43a7 7 0 0 1 2 .24c1.65.34 3.51.73 5.59-.94l-.34-22.87.26-.17c3.48-2.22 7.48-9 8.06-11.6a3.77 3.77 0 0 0-.82-3.79 2 2 0 0 0-1.76-.63 12.38 12.38 0 0 0-1.76 1.52 11.35 11.35 0 0 1-2.55 2.07 44.26 44.26 0 0 0-9.68 5.78 45.25 45.25 0 0 1-9.13 5.55c-17.83 7.66-85.54 13.73-92.85 14.37Z" class="color547ac5 svgShape"></path><path fill="#ffffff" d="M232.32 367.39s-.57 1.23 1 .69c1.14-.4 1.4 10.22 1.4 10.22l-1.22 12-3.23 1.38-4.88-8.27a11.49 11.49 0 0 1-1.07-8.54c1.4-4.46.19-4.27 2.19-6.55s2.31-3.2 2.8-3a36.87 36.87 0 0 1 3.01 2.07ZM196.76 364.75C172.27 362 45 364.42 19.33 385.4c0 0 31 86.8 33.49 90.24s90.11-37.91 98.76-39 17.92-7.62 31.34-10.69 30.93-12.52 30.85-25.93c0 .03-11.14-34.62-17.01-35.27Z" class="colorfff svgShape"></path><path fill="#547ac5" d="M53.49 476.33c-.58 0-1-.12-1.12-.36-2.53-3.46-32.3-86.83-33.56-90.38l-.14-.37.33-.22c26-21.31 154.72-23.33 177.84-20.77 6.05.67 16.33 32.09 17.48 35.68v.16c.09 14.15-18.66 23.59-31.28 26.48a101.85 101.85 0 0 0-17.4 6.08c-5.16 2.19-9.61 4.08-14 4.62-3.68.46-22.49 8.59-42.4 17.19-35.8 15.45-51.5 21.89-55.75 21.89ZM20 385.59c10.74 30.09 31.34 87.07 33.28 89.72 2.33 1.07 33.08-12.21 55.54-21.92 20.85-9 38.86-16.8 42.7-17.27 4.24-.53 8.63-2.39 13.7-4.54a102.54 102.54 0 0 1 17.59-6.15c12.25-2.8 30.42-11.85 30.41-25.29-4.44-13.79-12.48-34.39-16.51-34.84-22.96-2.53-150.21-.61-176.71 20.29Z" class="color547ac5 svgShape"></path><path fill="#0031ff" d="m146.07 406.27.14-1.12c16.08 2 32.12-13.55 32.28-13.71l.79.81c-.67.65-16.58 16.1-33.21 14.02Z" class="color0031ff svgShape"></path><path fill="#ffffff" d="M286.15 466.55 310.06 449l9.86 45-19.1 10.87S287 485.29 287 485.36s-.85-18.81-.85-18.81Z" class="colorfff svgShape"></path><path fill="#547ac5" d="m300.66 505.59-.29-.41c-4.3-6.09-12.19-17.24-13.58-19.19l-3.43.83 3.1-1.78c-.09-2.08-.64-13.78-.86-18.47v-.3l.24-.17 24.58-18.1 10.13 46.27Zm-13.12-20.39c.38.45 1 1.3 2.1 2.88l11.35 16 18.3-10.41-9.6-43.79-23 16.9.74 15.57c.09 1.54.13 2.37.11 2.85Z" class="color547ac5 svgShape"></path><path fill="#002cad" d="M316.53 501.1a4.47 4.47 0 0 1-5.72-2.71l-24.11-67.8a4.48 4.48 0 0 1 2.72-5.72 4.47 4.47 0 0 1 5.71 2.72l24.11 67.8a4.47 4.47 0 0 1-2.71 5.71Z" class="color002cad svgShape"></path><path fill="#9dd0f7" d="M288.56 445.26A33.29 33.29 0 1 1 319.69 410a33.34 33.34 0 0 1-31.13 35.26Z" class="color9dd0f7 svgShape"></path><path fill="#547ac7" d="M286.45 445.88a33.9 33.9 0 1 1 2.14-.07c-.72.05-1.43.07-2.14.07Zm.06-66.57c-.69 0-1.39 0-2.09.06a32.73 32.73 0 0 0 4.1 65.33 32.73 32.73 0 0 0-2-65.39Z" class="color547ac7 svgShape"></path><path fill="#ffffff" d="M288.11 438.14a26.16 26.16 0 1 1 24.47-27.74 26.18 26.18 0 0 1-24.47 27.74Z" class="colorfff svgShape"></path><path fill="#547ac5" d="M286.44 438.75a26.61 26.61 0 1 1 1.7-.05c-.56.03-1.14.05-1.7.05Zm.05-52.31c-.54 0-1.08 0-1.62.05a25.6 25.6 0 1 0 1.62-.05Z" class="color547ac5 svgShape"></path><path fill="#002cad" d="m273.72 421 3.57-1.94a3.84 3.84 0 0 0 1.84 1.82 2.84 2.84 0 0 0 2.2 0 2.76 2.76 0 0 0 1.66-1.71 3.81 3.81 0 0 0-.14-2.78 3.61 3.61 0 0 0-1.71-2 2.69 2.69 0 0 0-2.25-.09 6.78 6.78 0 0 0-1.67 1l-.82-3.3a3.66 3.66 0 0 0 2.13-1.63 2.62 2.62 0 0 0 .07-2.26 2.27 2.27 0 0 0-3.11-1.36 2.55 2.55 0 0 0-1.42 1.37 3.45 3.45 0 0 0-.06 2.35l-3.82.8a8.69 8.69 0 0 1 0-3.37 5.51 5.51 0 0 1 1.42-2.56 7.56 7.56 0 0 1 2.77-1.82 6.51 6.51 0 0 1 5.3 0 5.14 5.14 0 0 1 2.75 2.81q1.05 2.67-1.23 5.4a5.14 5.14 0 0 1 3.44.58 5.24 5.24 0 0 1 2.28 2.72 6.52 6.52 0 0 1-.16 5.31 7.81 7.81 0 0 1-9.28 4 6.7 6.7 0 0 1-3.76-3.34ZM289.7 414.88l3.71-1.92a3.54 3.54 0 0 0 1.8 1.69 2.89 2.89 0 0 0 2.18 0 2.79 2.79 0 0 0 1.66-1.8 4.77 4.77 0 0 0-.33-3.3 4.37 4.37 0 0 0-1.94-2.47 3 3 0 0 0-2.54-.07 4.23 4.23 0 0 0-2.41 2.66l-3.33.78-2.17-11.31 10.26-4.05 1.43 3.63-7.32 2.89.75 3.67a6.35 6.35 0 0 1 2.4-1.69 6.24 6.24 0 0 1 5.11.15 7.23 7.23 0 0 1 3.72 4.16 7.84 7.84 0 0 1 .31 5 6.88 6.88 0 0 1-4.42 4.84 7.28 7.28 0 0 1-5.16.3 6.63 6.63 0 0 1-3.71-3.16Z" class="color002cad svgShape"></path><path fill="#ffffff" d="M274 486.8c-.36-6.21-2.41-16.41 2.54-27.69.65-1.47-.59-10.86 0-11.83 1.05-1.82 5.6-2.91 8.59 2 2.1 3.44 4.82 14.25 3.37 20.39l12.6 33.5c.8 2.09-3.61 4.94-4.95 10.41-8.88 36.21-54.12 135.51-54.27 135.17l-68.38-47.3S274.89 502.32 274 486.8Z" class="colorfff svgShape"></path><path fill="#547ac5" d="m241.68 649.32-69.1-47.81.48-.47c1-1 101.25-99.12 100.37-114.21-.06-1-.16-2-.26-3.19-.59-6.38-1.39-15.11 2.84-24.75.28-.65.09-3.86-.05-6.21-.22-3.6-.27-5.13 0-5.68a4.32 4.32 0 0 1 3.65-1.81c1.34 0 3.87.45 5.91 3.79s4.9 14.2 3.47 20.64L301.57 503c.5 1.3-.45 2.64-1.65 4.34a18.91 18.91 0 0 0-3.28 6.4c-4.63 18.89-19.07 54.59-30.37 81.22-7 16.63-13.41 31-16.56 38-7.31 16.33-7.43 16.34-7.83 16.38Zm-67.36-48 67.3 46.56c3.57-7.65 45.37-99.55 53.94-134.49a19.5 19.5 0 0 1 3.45-6.77c1-1.43 1.8-2.56 1.52-3.3l-12.66-33.62v-.16c1.43-6.07-1.33-16.73-3.3-20-1.76-2.87-3.84-3.23-4.94-3.26a3.2 3.2 0 0 0-2.7 1.26 30 30 0 0 0 .1 5.05c.22 3.63.33 5.89 0 6.73-4.11 9.37-3.33 17.94-2.75 24.2.1 1.17.2 2.24.26 3.22.88 15.26-91.74 106.31-100.22 114.62Z" class="color547ac5 svgShape"></path><path fill="#ff5a18" d="M252.87 504.79c-5.35 5.65-109.72 63.89-142.86 109.06-8.06 11 17.92 91.91 17.92 91.91s65 37.9 70.5 38.85 60.9-117.34 68.12-126.29 10.76-25.27 20.65-40.52 17.48-24.62 6.32-38.36c-6.86-8.44-35.29-40.31-40.65-34.65Z" class="colorff5a18 svgShape"></path><path fill="#ffffff" d="m243 590.65-.89-1.18c17.08-12.86 18-42.33 18-42.63h1.48c-.05 1.27-.92 30.52-18.59 43.81ZM329.7 489.62s-5.83 4.92-7.79 6.55c-6 5-12 1.05-12.59.05-2.67-4.38 2.65-8.53 5-10.26l7.91-5.76c2.06-1.5 5.28-.73 7.27 1.72l.08.09c2.06 2.51 2.15 5.91.12 7.61Z" class="colorfff svgShape"></path><path fill="#547ac5" d="M315.5 499.2a9.59 9.59 0 0 1-1.6-.13 8.43 8.43 0 0 1-5-2.56c-2-3.33-.3-7 5.16-11l7.91-5.76c2.31-1.68 5.84-.88 8 1.82l.07.09c2.24 2.76 2.26 6.52 0 8.39s-5.83 4.92-7.79 6.54a10.45 10.45 0 0 1-6.75 2.61Zm9.19-19.2a3.54 3.54 0 0 0-2.11.65l-7.91 5.76c-5 3.62-6.57 6.74-4.87 9.51a7.57 7.57 0 0 0 4.28 2.05 9.12 9.12 0 0 0 7.48-2.23l7.78-6.54c1.77-1.48 1.69-4.55-.17-6.83l-.08-.1a5.88 5.88 0 0 0-4.4-2.27Z" class="color547ac5 svgShape"></path><path fill="#ffffff" d="M328.59 475.8 316 484.94c-2.86 2.09-10 2.93-11.85-1.12-1.55-3.46 1.08-8.17 4-10l12.68-7.82c2.36-1.47 5.88-.6 8 2l.07.09c2.1 2.52 2.02 6.02-.31 7.71Z" class="colorfff svgShape"></path><path fill="#547ac5" d="M309.91 487.25a9.83 9.83 0 0 1-2.54-.32 5.28 5.28 0 0 1-3.68-2.88c-1.76-3.91 1.24-8.84 4.16-10.67l12.69-7.9c2.6-1.63 6.41-.71 8.68 2.08l.08.09a6.92 6.92 0 0 1 1.61 5.18 5 5 0 0 1-2 3.42l-12.55 9.14a11.68 11.68 0 0 1-6.45 1.86Zm13.52-21.45a4.31 4.31 0 0 0-2.3.62l-12.69 7.91c-2.52 1.57-5.22 6-3.74 9.26a4.19 4.19 0 0 0 3 2.27 10.75 10.75 0 0 0 8-1.37l12.56-9.14a3.84 3.84 0 0 0 1.54-2.67 5.8 5.8 0 0 0-1.38-4.33l-.08-.09a6.51 6.51 0 0 0-4.91-2.46Z" class="color547ac5 svgShape"></path><path fill="#ffffff" d="m322.94 465.34-6.3 3.93c-2.89 1.8-11.15 3.68-13.65 1.34-5-4.67 2.71-10.33 5.62-11.86l6.39-3.35c2.59-1.36 6.32-.38 8.46 2.19l.08.09c2.15 2.64 1.95 6.07-.6 7.66Z" class="colorfff svgShape"></path><path fill="#547ac5" d="M307 472.25a6.43 6.43 0 0 1-4.39-1.24 5 5 0 0 1-1.77-4.43c.5-3.72 5.13-7.07 7.51-8.32l6.35-3.35c2.82-1.48 6.84-.46 9.15 2.32l.08.09a6.51 6.51 0 0 1 1.57 5.1 4.88 4.88 0 0 1-2.27 3.39l-6.3 3.93a22.57 22.57 0 0 1-9.93 2.51Zm10.56-16.9a5 5 0 0 0-2.34.55l-6.35 3.35c-2.46 1.29-6.52 4.46-6.93 7.48a3.89 3.89 0 0 0 1.43 3.47c2.25 2.12 10.18.33 13-1.4l6.3-3.93a3.75 3.75 0 0 0 1.76-2.63 5.35 5.35 0 0 0-1.33-4.2l-.1-.04a7.27 7.27 0 0 0-5.44-2.65Z" class="color547ac5 svgShape"></path><path fill="#ffffff" d="m318.19 455.25-8.19 4c-2.92 1.47-8.81 2.34-10.36-1.76-2.33-6.2 3-9.24 5.79-10.78a49.2 49.2 0 0 0 6.12-3.59c2.22-2 7.55-.12 9.14 3.32 1.16 2.56.23 7.44-2.5 8.81Z" class="colorfff svgShape"></path><path fill="#547ac5" d="M304.82 461.06a7.85 7.85 0 0 1-2.84-.48 4.83 4.83 0 0 1-2.86-2.87c-2.52-6.73 3.48-10 6-11.46l.89-.47a38.64 38.64 0 0 0 5.13-3 4.74 4.74 0 0 1 4.23-.81 8.39 8.39 0 0 1 5.78 4.31c1.33 2.88.23 8-2.74 9.51l-8.2 4a12.7 12.7 0 0 1-5.39 1.27Zm9.2-18.17a3 3 0 0 0-2.09.68 37 37 0 0 1-5.36 3.19l-.87.47c-2.7 1.49-7.72 4.26-5.53 10.09a3.69 3.69 0 0 0 2.22 2.22c2.17.84 5.34.26 7.36-.76l8.2-4c2.39-1.21 3.31-5.7 2.23-8.05a7.23 7.23 0 0 0-5-3.68 5.44 5.44 0 0 0-1.18-.16Z" class="color547ac5 svgShape"></path><path fill="#ffffff" d="M287.85 469.73s.56 1 1.15 0 2.37-.74 2.37-.74l11.07 24.56a4.54 4.54 0 0 1 2.23 2.23c.7 1.6-.94 6.82-.94 6.82a14.53 14.53 0 0 0-3.68 2.44c-1.25 1.32-12 2.37-12.2 2s-4.07.63-5.47-7.94a142.27 142.27 0 0 1-1.67-14.49s-.42-4.25.91-6.69 2.71-10 2.71-10Z" class="colorfff svgShape"></path></g><path fill="#7e99c6" d="M638.49 648.33H97.15a1 1 0 1 1 0-2h541.34a1 1 0 0 1 0 2Z" class="color7e99c6 svgShape"></path><path fill="#ffffff" d="M396.43 312.29c-1.35.51-4.64-1.76-4-4.05a5.17 5.17 0 0 1 2.18-2.38c-.06-.11-2.67-1.72-1-3.83 1.48-1.89 5-.74 7.33-1s2.57-1.82 2.17-3.26-3.79-1.86-5.17-1.19a2.42 2.42 0 0 1-2.56-.32 1.73 1.73 0 0 1-.36-2.4c.66-1.26 5.45-3 8.15-2 11.08 4.22 19.35 11.09 20.71 15.51.57 1.85-2.05 3.78-11.15 3.32-4.41 4.68-6 9.5-9.3 5-3.24 2.31-7.87-.18-7-3.4Z" class="colorfff svgShape"></path><path fill="#547ac5" d="M405.88 318a3.5 3.5 0 0 1-2.57-1.59 5.55 5.55 0 0 1-5.77-.3 3.75 3.75 0 0 1-1.73-3.25 4.82 4.82 0 0 1-2.56-1.27 3.52 3.52 0 0 1-1.32-3.53 5 5 0 0 1 1.81-2.31c-1.86-1.79-1.16-3.31-.55-4.1 1.18-1.5 3.37-1.37 5.29-1.25a13.77 13.77 0 0 0 2.4 0 2.16 2.16 0 0 0 1.61-.79 2.26 2.26 0 0 0 .11-1.78 1.3 1.3 0 0 0-.76-.65 5.39 5.39 0 0 0-3.66-.21 3 3 0 0 1-3.15-.38 2.27 2.27 0 0 1-.48-3.08c.81-1.53 6-3.3 8.82-2.21 11.89 4.53 19.71 11.55 21 15.86a2 2 0 0 1-.37 1.92c-1.28 1.66-5.11 2.39-11.08 2.12-1 1.07-1.84 2.14-2.59 3.1-1.68 2.19-2.9 3.7-4.45 3.7Zm-2.35-3 .31.42c.77 1 1.43 1.55 2 1.55 1 0 2.16-1.44 3.6-3.27.82-1 1.74-2.2 2.83-3.36l.17-.18h.25c7.93.39 9.93-1 10.43-1.68a1 1 0 0 0 .18-.94c-1.27-4.12-9.24-10.92-20.38-15.17-2.57-1-7 .78-7.48 1.71s-.35 1.25.23 1.74a1.87 1.87 0 0 0 2 .24 6.31 6.31 0 0 1 4.58.19 2.25 2.25 0 0 1 1.36 1.35 2.85 2.85 0 0 1-2.63 3.94 15.07 15.07 0 0 1-2.6 0c-1.74-.1-3.54-.21-4.37.84s-.52 1.92.8 3a.71.71 0 0 1 .26.29l.27.53-.55.21a4.65 4.65 0 0 0-1.85 2 2.63 2.63 0 0 0 1 2.44 2.93 2.93 0 0 0 2.29.95l1-.38-.28 1a2.58 2.58 0 0 0 1.18 2.84 4.43 4.43 0 0 0 5 0Z" class="color547ac5 svgShape"></path><path fill="#ffffff" d="M491.68 363.15c-9.31 3.72-20.65 6.13-29.14-.76-7.3-5.93-4.37-4-11.09-10.48-8.7-8.36-16.95-16.06-24.69-25.33-3.5-4.19-8.61-9.45-10.06-14.86-1.19-4.43 1.75-8.27 3.62-12.05A214.74 214.74 0 0 0 444.93 314c6.71 3.37 20.39 10.41 29.64 13.82 8.64 3.18 18.79-9.21 23-14.31 5.7-6.9 11.28-13.91 17.76-20.11 5.73-5.47 12.85-11.11 21.13-11.38 7.06-.22 14.33 3.52 17.65 9.86 7 13.39-6.16 28.47-14.65 37.65-13.3 14.35-29.4 26.53-47.78 33.62Z" class="colorfff svgShape"></path><path fill="#547ac5" d="M475.6 367.33a20.59 20.59 0 0 1-13.4-4.51c-4.49-3.65-5.17-4.38-6.51-5.84-.85-.91-2-2.17-4.62-4.68l-2.64-2.53c-7.78-7.46-15.12-14.5-22.08-22.84l-1.71-2c-3.38-3.93-7.2-8.37-8.47-13.07-1-3.8.79-7.1 2.53-10.28.39-.72.78-1.44 1.13-2.15l.28-.56.51.36a214.9 214.9 0 0 0 24.55 14.26l2.07 1c7.17 3.62 19.17 9.67 27.52 12.75s18.09-8.92 22.3-14l2.16-2.61A196.68 196.68 0 0 1 515 293c5.46-5.22 12.85-11.25 21.48-11.53 7.56-.26 14.85 3.84 18.15 10.15 7.46 14.27-7.53 30.48-14.73 38.26-14.59 15.78-30.74 27.14-48 33.79-6.15 2.43-11.55 3.66-16.3 3.66Zm-55.08-66.86c-.27.54-.57 1.08-.87 1.63-1.64 3-3.33 6.1-2.43 9.48 1.2 4.46 4.94 8.8 8.24 12.64.6.69 1.18 1.37 1.72 2 6.93 8.29 14.25 15.31 22 22.74l2.64 2.54c2.63 2.53 3.81 3.8 4.66 4.72a47.53 47.53 0 0 0 6.41 5.73c6.72 5.46 16.07 5.68 28.59.67 17.09-6.59 33.1-17.86 47.58-33.51 7-7.61 21.68-23.43 14.57-37-3.12-6-10-9.8-17.16-9.57-8.26.27-15.44 6.14-20.76 11.22a197.55 197.55 0 0 0-15.66 17.56l-2.16 2.62c-4.36 5.28-14.59 17.65-23.51 14.36-8.41-3.1-20.45-9.17-27.64-12.8l-2.06-1a216.52 216.52 0 0 1-24.16-14.03Z" class="color547ac5 svgShape"></path><path fill="#9bcef5" d="M485.51 365.22s11.24-25.06 24.22-52.08c0 0 8.22-21.48 20.18-29.34 0 0-13.56 60.68-28.87 74.57-4.04 3.7-15.53 6.85-15.53 6.85Z" class="color9bcef5 svgShape"></path><path fill="#ffffff" d="m534.79 621.32 2.53 14.49h6.86l3.27-16.02-12.66 1.53z" class="colorfff svgShape"></path><path fill="#547ac5" d="M544.62 636.35h-7.76l-2.7-15.5 14-1.69Zm-6.85-1.09h6l3-14.84-11.35 1.37Z" class="color547ac5 svgShape"></path><path fill="#3a68fd" d="M501.87 404.44a890.81 890.81 0 0 0 10.65 119.37c7.49 46.36 23.24 98.53 23.24 98.53h12.31s4.55-62.65 7.22-102c2.54-37.45 13.21-109 13.21-109Z" class="color3a68fd svgShape"></path><path fill="#002cad" d="M532.1 625.6a3 3 0 0 1-1.64-4 7.56 7.56 0 0 1-.29-2.95c.29-.93 19.58-2.63 20.63 0S550 622 550 622s2.35 1.86-.11 2.49-11.36 2.97-17.79 1.11Z" class="color002cad svgShape"></path><path fill="#0031ff" d="M526.1 400s1.13 31.09 6.22 83.82c5.3 54.87 17.15 119.18 17.15 119.18s4.3-67.32 7-96.43c2.21-24.24 12.07-95.2 12.07-95.2Z" class="color0031ff svgShape"></path><path fill="#ff5a18" d="M536.5 631.12s-29.79 0-35.62 15.21h35.82l3.91-3.32 2.94 3.32h5.94s4-10.69-4.47-14.75c-.02 0-3.42 2.93-8.52-.46Z" class="colorff5a18 svgShape"></path><path fill="#3a68fd" d="M614.09 404.44s7.78 45.37 12.07 109c2.43 36-6.23 109.85-6.23 109.85l-12.66-3.45-59.82-208.46Z" class="color3a68fd svgShape"></path><path fill="#ffffff" d="m619.93 621.32-2.52 14.49h-6.86l-3.28-16.02 12.66 1.53z" class="colorfff svgShape"></path><path fill="#547ac5" d="M617.86 636.35h-7.76l-3.51-17.19 14 1.69Zm-6.86-1.09h6l2.35-13.47-11.35-1.37Z" class="color547ac5 svgShape"></path><path fill="#002cad" d="M622.63 625.6a3 3 0 0 0 1.64-4 7.42 7.42 0 0 0 .28-2.95c-.28-.93-19.57-2.63-20.63 0s.82 3.42.82 3.42-2.34 1.86.12 2.49 11.34 2.9 17.77 1.04Z" class="color002cad svgShape"></path><path fill="#ff5a18" d="M618.23 631.12s29.79 0 35.62 15.21H621l-4-2.87-3.47 2.87h-8.37s-4-10.69 4.47-14.75c.07 0 3.5 2.93 8.6-.46Z" class="colorff5a18 svgShape"></path><path fill="#ffffff" d="M622.38 415.46c-33.38 5.93-67.87 8.05-101.36 1.81-7.62-1.42-15.45-2.84-22.66-5.75-2.31-.94-4.08-1.58-4.42-4.19-.44-3.37 1-7.83 1.43-11.16 2.1-17 4.59-34 7.33-50.89 3.81-23.43 8.58-52.8 32.2-64.58 12.31-6.14 27.83-6.5 40.55-1.39 13 5.23 22.49 16.45 28.94 28.61 8.14 15.34 12.25 32.46 14.83 49.53a291.8 291.8 0 0 1 3.16 58.01Z" class="colorfff svgShape"></path><path fill="#547ac5" d="M563.71 421.59a233.33 233.33 0 0 1-42.79-3.78l-.46-.09c-7.47-1.39-15.18-2.83-22.3-5.7l-.19-.08c-2.25-.9-4.2-1.69-4.57-4.54-.31-2.35.25-5.1.8-7.76.26-1.27.5-2.46.63-3.54 2-16.13 4.39-32.78 7.34-50.91 3.85-23.66 8.63-53.08 32.49-65 12.24-6.1 28-6.64 41-1.41 11.55 4.64 21.65 14.62 29.21 28.86 7 13.27 11.77 29.07 14.89 49.71a292.43 292.43 0 0 1 3.16 58.12v.43l-.42.07a335.77 335.77 0 0 1-58.79 5.62Zm-7-145.28a48.46 48.46 0 0 0-21.54 4.88c-23.36 11.65-28.09 40.76-31.9 64.15-2.94 18.14-5.34 34.77-7.33 50.89-.14 1.12-.39 2.34-.65 3.63-.52 2.57-1.07 5.23-.79 7.4s1.73 2.8 3.91 3.68l.19.07c7 2.84 14.68 4.26 22.09 5.64l.46.09c29.77 5.54 62.73 5 100.74-1.74a292 292 0 0 0-3.18-57.47c-3.1-20.52-7.79-36.2-14.77-49.36-7.43-14-17.34-23.82-28.66-28.36a50.17 50.17 0 0 0-18.6-3.5Z" class="color547ac5 svgShape"></path><path fill="#9bcef5" d="M622.4 415.44s1.78-65-12.29-91.49l-29.05 11.93s14.74 27.87 18.26 43.66c6.46 28.92-3.12 39.67-3.12 39.67Z" class="color9bcef5 svgShape"></path><path fill="#9bcef5" d="M578.35 302.2S573 333 594.53 353.87l2.08 16.57s-16.76-8.8-23.16-25.27c-8.66-22.28-1.18-46.87-1.18-46.87Z" class="color9bcef5 svgShape"></path><path fill="#ffffff" d="M545.35 277.21s5.32 9.45 21.44-.4c0 0-3.28-8.61-.7-17.58l-16.42 4s1.59 6.16-4.32 13.98Z" class="colorfff svgShape"></path><path fill="#547ac5" d="M553.83 281.84a12.52 12.52 0 0 1-3.22-.4 9.38 9.38 0 0 1-5.73-4l-.17-.31.21-.28c5.65-7.5 4.24-13.46 4.22-13.52l-.13-.53 17.86-4.36-.26.9c-2.5 8.68.66 17.15.69 17.24l.16.42-.38.24c-4.98 3.08-9.42 4.6-13.25 4.6Zm-7.83-4.61a8.69 8.69 0 0 0 4.89 3.17c4.1 1.06 9.22-.23 15.22-3.82a31.4 31.4 0 0 1-.8-16.6l-15 3.66c.24 1.68.53 7.03-4.31 13.59Z" class="color547ac5 svgShape"></path><path fill="#3a68fd" d="M420.74 297.94s-9.53 10-8.86 14.89l4.55 4.64 9.26-16.5Z" class="color3a68fd svgShape"></path><path fill="#ffffff" d="M558.69 227.51c8.37 1.85 13.06 12.86 10.47 24.59s-11.48 19.75-19.85 17.9-13.06-12.86-10.47-24.59 11.48-19.75 19.85-17.9Z" class="colorfff svgShape"></path><path fill="#547ac5" d="M551.76 270.81a11.76 11.76 0 0 1-2.57-.28c-4.22-.93-7.68-4.1-9.73-8.91a28.86 28.86 0 0 1 6.77-30.62c3.88-3.5 8.35-4.92 12.58-4 8.65 1.91 13.53 13.23 10.88 25.23a27.16 27.16 0 0 1-7.92 14.34 15.1 15.1 0 0 1-10.01 4.24Zm4.48-43a14 14 0 0 0-9.28 4 27.76 27.76 0 0 0-6.5 29.43c1.91 4.48 5.09 7.42 9 8.27s8-.47 11.61-3.73a26.07 26.07 0 0 0 7.56-13.78c2.52-11.42-2-22.16-10.06-23.94a10.74 10.74 0 0 0-2.33-.28Z" class="color547ac5 svgShape"></path><path fill="#ffffff" d="M543.14 244.78s-5.65 7.05-7.47 11.18a1.12 1.12 0 0 0 .72 1.54c2 .58 6 1.68 7.76 1.56 2.34-.15-1.01-14.28-1.01-14.28Z" class="colorfff svgShape"></path><path fill="#547ac5" d="M543.88 259.61a36.29 36.29 0 0 1-7.64-1.59 1.65 1.65 0 0 1-1.06-2.28c1.82-4.14 7.3-11 7.53-11.3l.7-.87.25 1.08c.49 2.06 2.86 12.45 1.36 14.48a1.09 1.09 0 0 1-.83.47Zm-1-13.6c-1.56 2-5.3 7-6.69 10.17a.57.57 0 0 0 0 .48.56.56 0 0 0 .37.32c1.72.5 5.89 1.65 7.58 1.54.74-.44.15-6.16-1.28-12.52Z" class="color547ac5 svgShape"></path><path fill="#9bcef5" d="M543.14 235.56s-2.52 3.74-3 5.53A14.14 14.14 0 0 0 551.3 239c8.4-5.51 16.92.64 16.92.64l-1.06-7.09-22.23-5Z" class="color9bcef5 svgShape"></path><path fill="#ff5a18" d="M566.68 243.45a5.51 5.51 0 0 1-5.12-4.21c-1.34-4.3-7-4-11-1.85s-10.63 3-15.18.34c-3.48-2-7.64-9.07-1.16-13.91 5.87-4.39 21-5.78 25.74-4.89 8.59 1.61 18.75 12.87 17 23.31-1.25 7.37-5.4 19.07-11.39 18.93 1.5-7.75 3.54-12.81 1.11-17.72Z" class="colorff5a18 svgShape"></path><path fill="#ffffff" d="M564.89 247.82s3.19-3.46 5.64-.69-1.31 11.56-5.49 8.64-.15-7.95-.15-7.95Z" class="colorfff svgShape"></path><path fill="#547ac5" d="M566.75 256.91a3.51 3.51 0 0 1-2-.69 4.57 4.57 0 0 1-2.08-3.19c-.4-2.74 1.72-5.43 1.81-5.55a6.1 6.1 0 0 1 3.85-1.94 3.41 3.41 0 0 1 2.56 1.26c1.77 2 .77 6.35-1.25 8.61a4 4 0 0 1-2.89 1.5Zm-1.45-8.74c-.16.21-1.9 2.53-1.58 4.71a3.61 3.61 0 0 0 1.63 2.45c1.49 1 2.75.21 3.53-.68 1.85-2.07 2.49-5.76 1.24-7.16a2.32 2.32 0 0 0-1.75-.89 5.09 5.09 0 0 0-3.07 1.57Z" class="color547ac5 svgShape"></path><path fill="#3a68fd" d="M545.35 277.21s3.21 4.44 7.47 4.09l-9.71 5.38a10.12 10.12 0 0 1 2.24-9.47Z" class="color3a68fd svgShape"></path><path fill="#3a68fd" d="M566.79 276.81s-10.34 5.28-14 4.49v7.15s10.98-1.45 14-11.64ZM541.15 296.65a2.62 2.62 0 1 1 2.62 2.62 2.61 2.61 0 0 1-2.62-2.62ZM530.34 328.63a2.62 2.62 0 1 1 2.62 2.62 2.62 2.62 0 0 1-2.62-2.62ZM527.29 383.9a2.62 2.62 0 1 1 2.62 2.61 2.62 2.62 0 0 1-2.62-2.61ZM527.29 365.22a2.62 2.62 0 1 1 2.62 2.61 2.62 2.62 0 0 1-2.62-2.61ZM535.51 310.53a2.62 2.62 0 1 1 2.62 2.61 2.62 2.62 0 0 1-2.62-2.61ZM527.72 348.4a2.62 2.62 0 1 1 2.62 2.62 2.61 2.61 0 0 1-2.62-2.62Z" class="color3a68fd svgShape"></path><path fill="#ffffff" d="M541 246.56s1-.31.9.62-.9 6.57-.9 6.57l1.28 4.62s.77.45-.26 1.09.67 1.86.67 1.86 4.59.81 4.69.81 1.87-.45 1.93-1 1.38-7.54.72-10a35.68 35.68 0 0 0-1.44-4.7 14.77 14.77 0 0 0-1.68-2.5 6.22 6.22 0 0 0-2.72-1.53c-.6 0-1.53-.57-2.1.12s-.9.56-1.09 1.25a12.45 12.45 0 0 0 0 2.79ZM567.38 245.27s.51.61.35 3-1.19 8.25-1.42 9.26-2.55 1.58-2.8 1.3a5.59 5.59 0 0 1-2.81-2.75c-1-2.16-3.69-1.84-1.13-5.44s3.19-4.37 3.19-4.37 1.91-.92 2.22-1a23.79 23.79 0 0 1 2.4 0ZM524.89 286.29l10.68-5.38s2.67 8.32 2.56 8.63S524.2 310 524.2 310s-10.56 9.5-11.13 9.81-3.62-3.5-3.62-3.5-.78-.7-1.31.12-2.53-.35-2.53-.45.48-1.69.61-2.13 5.27-12.64 5.31-12.77 5.58-7.08 5.58-7.08Z" class="colorfff svgShape"></path><path fill="#3a68fd" d="m474.24 373-15-22.33a6.11 6.11 0 0 1 2.85-9.12l42.75-16.67 1.11 2.85-42.74 16.67a3.06 3.06 0 0 0-1.44 4.56l15 22.33Z" class="color3a68fd svgShape"></path><path fill="#002cad" d="M474.22 342.5a4.08 4.08 0 0 1-1.48-7.88l31.15-12.15a4.08 4.08 0 0 1 3 7.61l-31.14 12.14a4.1 4.1 0 0 1-1.53.28Z" class="color002cad svgShape"></path><path fill="#9dd0f7" d="m583.35 452.28-36.17-84.46H430.7v4.42l5.75 9 30.42 71.04h116.48z" class="color9dd0f7 svgShape"></path><path fill="#547ac7" d="M584.11 452.78H466.54l-.13-.3-30.42-71-5.79-9.06v-5.05h117.31Zm-116.91-1h115.39l-35.74-83.45H431.2v3.76l5.67 8.88Z" class="color547ac7 svgShape"></path><path fill="#cce7f8" d="m465.44 451.74-33.92-78.96h112.31l33.92 78.96H465.44z" class="colorcce7f8 svgShape"></path><path fill="#547ac7" d="M578.51 452.24H465.12l-34.36-80h113.4Zm-112.74-1H577l-33.49-78H432.28Z" class="color547ac7 svgShape"></path><path fill="#9dd0f7" d="M527.76 638.07h35.79v8.26h-35.79z" class="color9dd0f7 svgShape"></path><path fill="#547ac7" d="M564.05 646.83h-36.79v-9.26h36.79Zm-35.79-1h34.79v-7.26h-34.79Z" class="color547ac7 svgShape"></path><path fill="#9dd0f7" d="m523.75 421.27-7.62-11.22v230.89h7.62V421.27z" class="color9dd0f7 svgShape"></path><path fill="#547ac7" d="M524.25 641.44h-8.62v-233l8.62 12.68Zm-7.62-1h6.62v-219l-6.62-9.74Z" class="color547ac7 svgShape"></path><path fill="#eaf5f8" d="M486.76 410.68h29.37v229.63h-29.37z" class="coloreaf5f8 svgShape"></path><path fill="#547ac7" d="M516.63 640.81h-30.37V410.18h30.37Zm-29.37-1h28.37V411.18h-28.37Z" class="color547ac7 svgShape"></path><path fill="#cce7f8" d="M434.41 638.07h103.45v8.26H434.41z" class="colorcce7f8 svgShape"></path><path fill="#547ac7" d="M538.36 646.83H433.91v-9.26h104.45Zm-103.45-1h102.45v-7.26H434.91Z" class="color547ac7 svgShape"></path><path fill="#0031ff" d="m416.9 324.65-41.65-42.57a2.51 2.51 0 0 1 0-3.56 2.51 2.51 0 0 1 3.56 0l41.66 42.58a2.5 2.5 0 0 1 0 3.56 2.51 2.51 0 0 1-3.57-.01Z" class="color0031ff svgShape"></path><rect width="16.1" height="5.05" x="367.73" y="276.49" fill="#002cad" rx="1.34" transform="rotate(-44.37 375.815 279.023)" class="color002cad svgShape"></rect><path fill="#002cad" d="m376.87 248.86-2.05 2 15.6 15.94 2-2c.74-.72-2.16-4.87-6.47-9.27s-8.35-7.39-9.08-6.67Z" class="color002cad svgShape"></path><path fill="#0031ff" d="M381.3 260.13c4.3 4.4 8.39 7.39 9.12 6.67s-2.16-4.87-6.47-9.27-8.39-7.39-9.13-6.67 2.18 4.87 6.48 9.27Z" class="color0031ff svgShape"></path><path fill="#ffb900" d="M374.9 252.73 350 277.1l13.35 13.68 24.91-24.37c.63-.61-1.85-4.16-5.54-7.94s-7.2-6.35-7.82-5.74Z" class="colorffb900 svgShape"></path><path fill="#002cad" d="m348.62 276.17-2 2 15.6 15.94 2-2c.73-.72-2.16-4.87-6.47-9.27s-8.39-7.38-9.13-6.67Z" class="color002cad svgShape"></path><path fill="#0031ff" d="M353.05 287.44c4.31 4.4 8.4 7.39 9.13 6.67s-2.17-4.86-6.47-9.26-8.4-7.39-9.13-6.68 2.17 4.83 6.47 9.27Z" class="color0031ff svgShape"></path><path fill="#ffffff" d="M579.4 412.08c-3.58-3.3-10.76-8.58-14-4.65-.84 1 .19 2.24 1.21 2.41a10.94 10.94 0 0 1 4.36 1.34 22.49 22.49 0 0 0-8.55 1.38c-.15 0-5.74 3-6.95 4.27-.83.84-2.13 2-2.46 3.31-.58 2.34 1.91 2.66 3.55 2.6-1.4 1-2.47 2.31-1.13 4.2a3.72 3.72 0 0 0 3.31 1.69 5.37 5.37 0 0 0-1.3 2.12c-.61 2.05 1.61 2.8 3 2.78a4.91 4.91 0 0 0 1.84-.43 1.41 1.41 0 0 0 0 .46c.09 1.36 1.83 1.79 2.74 1.72 2.08-.15 6.46-5.43 6.62-5.43a6.59 6.59 0 0 0 3.88-1.77c1.38-1.08 2.75-2.12 4.15-3.15 1.1-.53 2.09-1.05 2.79-1.42 2.06-1.09 4.17-.64 4.93-3 1.12-3.62-3.9-6.86-7.99-8.43Z" class="colorfff svgShape"></path><path fill="#547ac5" d="M564.73 435.83c-1.18 0-2.77-.58-3.05-1.95a5 5 0 0 1-1.26.19 4.09 4.09 0 0 1-3.18-1.29 2.36 2.36 0 0 1-.33-2.19 4.91 4.91 0 0 1 .75-1.5 4.39 4.39 0 0 1-2.68-1.83 3.23 3.23 0 0 1-.68-2.43 3.18 3.18 0 0 1 .85-1.6 3.5 3.5 0 0 1-2.31-1.06 2.35 2.35 0 0 1-.36-2.16 7.61 7.61 0 0 1 2.27-3.24l.32-.32a42.1 42.1 0 0 1 7.13-4.38 18.94 18.94 0 0 1 6.25-1.32c-.52-.13-1.07-.22-1.62-.31l-.31-.05a2.52 2.52 0 0 1-1.86-1.51 1.76 1.76 0 0 1 .32-1.78 4.27 4.27 0 0 1 3.12-1.58c4.24-.27 9.86 4.5 11.61 6.1 4.57 1.78 9.4 5.21 8.12 9.1-.61 1.84-2 2.22-3.3 2.59a9.6 9.6 0 0 0-1.89.69l-.17.08c-.69.37-1.62.85-2.64 1.35-1.35 1-2.71 2-4.06 3.09a7.32 7.32 0 0 1-4 1.87c-.11.1-.27.28-.47.5-2.34 2.5-4.72 4.83-6.33 4.94Zm-1.65-3.69-.32 1.11a.69.69 0 0 0 0 .28c.06.94 1.47 1.27 2.16 1.21 1.41-.1 4.58-3.49 5.62-4.6.72-.78.77-.83 1-.84a6 6 0 0 0 3.55-1.65c1.36-1.06 2.73-2.1 4.17-3.15 1.09-.55 2-1 2.7-1.39l.16-.08a9.91 9.91 0 0 1 2.11-.77c1.28-.37 2.13-.6 2.56-1.89 1.12-3.41-4.24-6.5-7.58-7.78l-.17-.11c-3.25-3-7.79-6.09-10.87-5.89a3.22 3.22 0 0 0-2.36 1.19.68.68 0 0 0-.14.71 1.46 1.46 0 0 0 1 .82l.3.05a10.55 10.55 0 0 1 4.26 1.36l1.47 1h-1.76a22.31 22.31 0 0 0-8.34 1.34h-.09c-.7.33-5.65 3.05-6.69 4.12l-.34.33a6.92 6.92 0 0 0-2 2.73 1.34 1.34 0 0 0 .15 1.21c.41.51 1.45.78 2.85.72l1.86-.07-1.53 1.06a3.16 3.16 0 0 0-1.49 1.82 2.19 2.19 0 0 0 .5 1.62 3.17 3.17 0 0 0 2.84 1.46H560l-.92 1a4.73 4.73 0 0 0-1.08 1.84 1.28 1.28 0 0 0 .15 1.22 2.86 2.86 0 0 0 2.29.86 4.11 4.11 0 0 0 1.63-.38Z" class="color547ac5 svgShape"></path><path fill="#ffffff" d="M606.67 420.52c-5.61 1.18-12.23 3.64-18 2.27-5.29-1.25-8.32-6.75-11.86-10.38 11.49-5.17 23.2-12.24 30.95-22.5 4.65-6.16.75-14.47-4.86-23.48-6.95-11.13-17.69-18.55-25.5-28.85-6.46-8.52-7.52-20.56-6.57-30.88a66.88 66.88 0 0 1 3.17-14.53c1-3 2.19-8.74 4.9-10.68 2.95-2.1 19.09 12.18 24.28 17.08 17 16.06 30 36.8 36 59.52 3.35 12.82 4.51 26.76.09 39.48-4.55 12.89-19.45 19.98-32.6 22.95Z" class="colorfff svgShape"></path><path fill="#547ac5" d="M592.33 423.73a16.32 16.32 0 0 1-3.77-.41c-4.08-1-6.8-4.26-9.43-7.43-.92-1.12-1.79-2.17-2.7-3.11l-.54-.55.7-.32c14.15-6.36 24.2-13.66 30.75-22.33 4.25-5.63 1.12-13.21-4.9-22.86-3.88-6.22-9.06-11.38-14.08-16.38A121.6 121.6 0 0 1 577 337.91c-7-9.28-7.52-22.12-6.68-31.26a67.63 67.63 0 0 1 3.12-14.65c.17-.51.34-1.1.53-1.75.92-3.16 2.18-7.49 4.57-9.2 3.78-2.69 22.82 15.09 25 17.12 17.52 16.56 30.35 37.83 36.1 59.83 4 15.16 4 28.55.07 39.8-5.4 15.55-24.82 21.47-32.92 23.3-1.23.26-2.5.58-3.84.91a45 45 0 0 1-10.62 1.72Zm-14.6-11.14c.75.81 1.48 1.69 2.24 2.6 2.51 3 5.11 6.19 8.84 7.07 4.35 1 9.19-.18 13.87-1.35 1.35-.34 2.62-.66 3.87-.92 7.93-1.79 26.92-7.57 32.14-22.59 3.84-11 3.8-24.23-.1-39.17-5.7-21.81-18.42-42.85-35.82-59.27-9.83-9.27-21.65-18.42-23.6-17s-3.28 5.62-4.16 8.62c-.19.66-.37 1.27-.53 1.79a65.37 65.37 0 0 0-3.1 14.41c-.82 8.94-.37 21.5 6.47 30.51a120.11 120.11 0 0 0 11.27 12.31c5.07 5 10.3 10.25 14.25 16.58 5 8.08 10 17.27 4.83 24.09-6.55 8.64-16.52 15.95-30.47 22.32Z" class="color547ac5 svgShape"></path><path fill="#3a68fd" d="M582.41 426.93a54.11 54.11 0 0 1-7.82-18.45l5-3.56s10.14 20.51 11.28 21.72Z" class="color3a68fd svgShape"></path><path fill="#ffffff" d="M581.51 282.29s-5.06-2.09-6.15-2.34-8.57 27.34-8.57 27.34l3.33 1.58s.39-1 1.1 0 7.54 2.67 7.54 2.67 4.75-3.69 4.75-6.81.31-7.13.31-10.32.5-5.18.13-6.75a37.24 37.24 0 0 0-2.44-5.37ZM405.89 318.15c-.76.37-2.41.63-3-.51a1.33 1.33 0 0 1-.12-.42 4.34 4.34 0 0 1-1.43 1c-1.17.51-3.34.65-3.54-1.33a4.9 4.9 0 0 1 .37-2.29 3.44 3.44 0 0 1-3.45-.28c-1.83-1.15-1.38-2.68-.52-4-1.4.64-3.65 1.24-4-1-.19-1.24 2.36-5.12 2.77-6.15a18.65 18.65 0 0 1 2.32-4.09.5.5 0 0 1 .13-.12.57.57 0 0 1 .43-.48c1.62-.46 4.09.07 4.1 2.42a9 9 0 0 1-.21 1.84c1-1 2.23-1.45 3.41-.4s1.16 2.9.66 4.53h.11a2.55 2.55 0 0 1 2.38.71 3 3 0 0 1 .29 2.28.55.55 0 0 1 .48 0c2.71 1.14 1.09 7.14-1.18 8.29Z" class="colorfff svgShape"></path><path fill="#547ac5" d="M399.83 319.11a2.94 2.94 0 0 1-1.47-.36 2.21 2.21 0 0 1-1.07-1.79 4.94 4.94 0 0 1 .09-1.52 4.05 4.05 0 0 1-2.92-.64 2.77 2.77 0 0 1-1.33-3.5 3.18 3.18 0 0 1-2.32-.12 2.23 2.23 0 0 1-1.1-1.75c-.14-1 .79-2.75 2-5 .36-.64.67-1.2.78-1.47a18.69 18.69 0 0 1 2.39-4.21.39.39 0 0 1 .08-.1 1.11 1.11 0 0 1 .76-.7 4.34 4.34 0 0 1 3.65.54 2.89 2.89 0 0 1 1.14 2.4v.65a2.53 2.53 0 0 1 3 .38c1.09 1 1.43 2.46 1 4.36a2.56 2.56 0 0 1 2.2.95 2.93 2.93 0 0 1 .48 2h.09a3.25 3.25 0 0 1 1.69 3.15c0 2.2-1.14 5.27-2.91 6.15-1 .5-2.74.65-3.54-.49a4.91 4.91 0 0 1-1 .6 4.53 4.53 0 0 1-1.69.47Zm-.64-5.54-.49 1.25a4.26 4.26 0 0 0-.33 2 1.16 1.16 0 0 0 .54 1 2.77 2.77 0 0 0 2.25-.08 3.85 3.85 0 0 0 1.25-.89l.8-.83.13 1.14a.61.61 0 0 0 .07.24c.38.77 1.66.54 2.24.26 1.23-.62 2.35-3.12 2.3-5.16a2.28 2.28 0 0 0-1.05-2.18l-1 .5.17-1a2.5 2.5 0 0 0-.19-1.87c-.38-.52-1.05-.53-1.89-.49l-.92.22.24-.9c.39-1.26.62-3-.5-4-.53-.48-1.32-.86-2.68.39l-1.27 1.16.37-1.68a8.25 8.25 0 0 0 .2-1.71 1.85 1.85 0 0 0-.72-1.54 3.27 3.27 0 0 0-2.69-.37v.22l-.22.17a17.37 17.37 0 0 0-2.27 4c-.14.34-.45.9-.84 1.6-.7 1.25-2 3.58-1.9 4.27a1.19 1.19 0 0 0 .54 1 3.35 3.35 0 0 0 2.67-.4l1.69-.77-1 1.56a2.85 2.85 0 0 0-.63 2.07 2 2 0 0 0 1 1.2 3 3 0 0 0 2.93.24Z" class="color547ac5 svgShape"></path></svg>