<svg xmlns="http://www.w3.org/2000/svg" enable-background="new 0 0 80 80" viewBox="0 0 80 80" width="550" height="550"><linearGradient id="a" x1="12.352" x2="12.352" y1="48.376" y2="44.864" gradientUnits="userSpaceOnUse"><stop offset="0" stop-color="#ffffff" class="stopColorfff svgShape"></stop><stop offset="1" stop-color="#f1f5fd" class="stopColorf1f5fd svgShape"></stop></linearGradient><path fill="url(#a)" d="M18.1,48.4H6.6c0,0,0,0,0,0c0-0.9,0.7-1.7,1.7-1.7c0.2,0,0.4,0,0.5,0.1c0.4-1.2,1.6-2.1,3-2.1
		c1.3,0,2.4,0.8,2.9,1.8c0.3-0.2,0.7-0.3,1.2-0.3C17,46.2,18.1,47.2,18.1,48.4z"></path><linearGradient id="b" x1="41.169" x2="41.169" y1="37.343" y2="34.35" gradientUnits="userSpaceOnUse"><stop offset="0" stop-color="#ffffff" class="stopColorfff svgShape"></stop><stop offset="1" stop-color="#f1f5fd" class="stopColorf1f5fd svgShape"></stop></linearGradient><path fill="url(#b)" d="M46.1,37.4h-9.9c0,0,0,0,0,0c0-0.8,0.6-1.4,1.4-1.4c0.2,0,0.3,0,0.5,0.1c0.4-1.1,1.4-1.8,2.5-1.8
		c1.1,0,2,0.6,2.4,1.6c0.3-0.2,0.6-0.3,1-0.3C45.2,35.5,46,36.3,46.1,37.4z"></path><linearGradient id="c" x1="60.239" x2="60.239" y1="39.873" y2="38.106" gradientUnits="userSpaceOnUse"><stop offset="0" stop-color="#ffffff" class="stopColorfff svgShape"></stop><stop offset="1" stop-color="#f1f5fd" class="stopColorf1f5fd svgShape"></stop></linearGradient><path fill="url(#c)" d="M63.2,39.9h-5.8c0,0,0,0,0,0c0-0.5,0.4-0.8,0.8-0.8c0.1,0,0.2,0,0.3,0c0.2-0.6,0.8-1.1,1.5-1.1
		c0.6,0,1.2,0.4,1.4,0.9c0.2-0.1,0.4-0.2,0.6-0.2C62.6,38.8,63.1,39.3,63.2,39.9z"></path><linearGradient id="d" x1="4295.371" x2="4296.759" y1="-2354.37" y2="-2349.78" gradientTransform="matrix(-.7057 .7079 .7094 .7048 4731.391 -1317.114)" gradientUnits="userSpaceOnUse"><stop offset="0" stop-color="#64c2e1" class="stopColor64c2e1 svgShape"></stop><stop offset="1" stop-color="#1897b5" class="stopColor1897b5 svgShape"></stop></linearGradient><path fill="url(#d)" d="M30.3,67.9c1.2,1.8,3.7,4.5,4.3,4.1s-0.7-3.8-1.9-5.6c-1.2-1.8-2.2-2.2-2.9-1.8
			S29.2,66.1,30.3,67.9z"></path><linearGradient id="e" x1="4299.156" x2="4297.5" y1="-2353.399" y2="-2345.989" gradientTransform="matrix(-.7057 .7079 .7094 .7048 4731.391 -1317.114)" gradientUnits="userSpaceOnUse"><stop offset="0" stop-color="#64c2e1" class="stopColor64c2e1 svgShape"></stop><stop offset="1" stop-color="#1897b5" class="stopColor1897b5 svgShape"></stop></linearGradient><path fill="url(#e)" d="M31,68.2c1.6,1,4,3.2,3.6,3.8s-3.4-0.6-5-1.6c-1.6-1-2-1.9-1.6-2.5S29.4,67.2,31,68.2z"></path><linearGradient id="f" x1="1892.729" x2="1893.685" y1="59.211" y2="62.371" gradientTransform="matrix(.7057 .7079 -.7094 .7048 -1244.235 -1317.114)" gradientUnits="userSpaceOnUse"><stop offset="0" stop-color="#f099dd" class="stopColorf099dd svgShape"></stop><stop offset="1" stop-color="#d34ac0" class="stopColord34ac0 svgShape"></stop></linearGradient><path fill="url(#f)" d="M49.3,66.9c-0.8,1.2-2.5,3.1-3,2.8c-0.5-0.3,0.5-2.6,1.3-3.9s1.5-1.5,2-1.2
			C50,64.9,50.1,65.6,49.3,66.9z"></path><linearGradient id="g" x1="1895.336" x2="1894.195" y1="59.879" y2="64.982" gradientTransform="matrix(.7057 .7079 -.7094 .7048 -1244.235 -1317.114)" gradientUnits="userSpaceOnUse"><stop offset="0" stop-color="#f099dd" class="stopColorf099dd svgShape"></stop><stop offset="1" stop-color="#d34ac0" class="stopColord34ac0 svgShape"></stop></linearGradient><path fill="url(#g)" d="M48.8,67.1c-1.1,0.7-2.8,2.2-2.5,2.6c0.3,0.4,2.3-0.4,3.4-1.1s1.4-1.3,1.1-1.7
			C50.6,66.4,49.9,66.4,48.8,67.1z"></path><path fill="#f1f5fd" d="M5.7,71c1,2.9,16,5.2,34.3,5.2s33.3-2.3,34.3-5.2H5.7z" class="colorF1F5FD svgShape"></path><linearGradient id="h" x1="32.312" x2="32.312" y1="55.227" y2="48.609" gradientUnits="userSpaceOnUse"><stop offset="0" stop-color="#99a9fa" class="stopColor99a9fa svgShape"></stop><stop offset="1" stop-color="#797efc" class="stopColor797efc svgShape"></stop></linearGradient><path fill="url(#h)" d="M26.8,54.5v1.3h9.7c0.7,0,1.3-0.6,1.3-1.3V39.1h-8.5c-0.7,0-1.2,0.6-1.2,1.2v14.2H26.8z"></path><linearGradient id="i" x1="26.302" x2="27.994" y1="53.444" y2="53.444" gradientUnits="userSpaceOnUse"><stop offset="0" stop-color="#f1f5fd" class="stopColorf1f5fd svgShape"></stop><stop offset="1" stop-color="#aac8f9" class="stopColoraac8f9 svgShape"></stop></linearGradient><path fill="url(#i)" d="M25.6,51.1v3.5c0,0.7,0.6,1.3,1.3,1.3s1.3-0.6,1.3-1.3v-3.5H25.6z"></path><linearGradient id="j" x1="39.867" x2="39.867" y1="64.002" y2="77.114" gradientUnits="userSpaceOnUse"><stop offset="0" stop-color="#f1f5fd" class="stopColorf1f5fd svgShape"></stop><stop offset="1" stop-color="#aac8f9" class="stopColoraac8f9 svgShape"></stop></linearGradient><path fill="url(#j)" d="M45.8,71H33.9c-0.9,0-1.6-0.7-1.6-1.6V43.4c0-0.9,0.7-1.6,1.6-1.6h11.9c0.9,0,1.6,0.7,1.6,1.6v26.1
		C47.4,70.3,46.7,71,45.8,71z"></path><linearGradient id="k" x1="33.218" x2="46.515" y1="56.415" y2="56.415" gradientUnits="userSpaceOnUse"><stop offset="0" stop-color="#99a9fa" class="stopColor99a9fa svgShape"></stop><stop offset="1" stop-color="#797efc" class="stopColor797efc svgShape"></stop></linearGradient><path fill="url(#k)" d="M45.8,42.7c0.4,0,0.7,0.3,0.7,0.7l0,26.1c0,0.4-0.3,0.7-0.7,0.7l-11.9,0c-0.4,0-0.7-0.3-0.7-0.7
		l0-26.1c0-0.4,0.3-0.7,0.7-0.7L45.8,42.7z"></path><linearGradient id="l" x1="34.831" x2="39.484" y1="43.68" y2="50.606" gradientUnits="userSpaceOnUse"><stop offset="0" stop-color="#f1f5fd" class="stopColorf1f5fd svgShape"></stop><stop offset="1" stop-color="#aac8f9" class="stopColoraac8f9 svgShape"></stop></linearGradient><path fill="url(#l)" d="M29.4,39.1c0.7,0,1.3,0.6,1.3,1.3v8.9l0.7-0.7l0.7,0.7l0.7-0.7l0.7,0.7l0.7-0.7l0.7,0.7l0.7-0.7
		l0.7,0.7l0.7-0.7l0.7,0.7l0.7-0.7l0.7,0.7l0.7-0.7l0.7,0.7v-8.9c0-0.7-0.6-1.3-1.3-1.3H29.4z"></path><linearGradient id="m" x1="-1744.192" x2="-1733.159" y1="41.926" y2="41.926" gradientTransform="translate(1788.755)" gradientUnits="userSpaceOnUse"><stop offset="0" stop-color="#f1f5fd" class="stopColorf1f5fd svgShape"></stop><stop offset="1" stop-color="#aac8f9" class="stopColoraac8f9 svgShape"></stop></linearGradient><path fill="url(#m)" d="M44.6,41.4v3.2c0,0.6,0.6,0.9,1.1,0.6l1.1-0.8c0.3-0.2,0.6-0.3,0.9-0.3h5c1.5,0,2.8-1.1,2.9-2.6
		c0.1-0.8-0.3-1.6-0.8-2.1c-0.5-0.5-1.2-0.8-1.9-0.8h-5.5C45.8,38.6,44.6,39.8,44.6,41.4z"></path><linearGradient id="n" x1="59.474" x2="62.621" y1="62.875" y2="62.875" gradientUnits="userSpaceOnUse"><stop offset="0" stop-color="#416d99" class="stopColor416d99 svgShape"></stop><stop offset="1" stop-color="#244d77" class="stopColor244d77 svgShape"></stop></linearGradient><path fill="url(#n)" d="M61,54.9c-0.9,0-1.6,1.1-1.5,1.9c0,0.7,1.4,14,1.4,14l0.8,0c0,0,1-13.3,1-14
		C62.6,56,61.9,54.9,61,54.9z"></path><linearGradient id="o" x1="3416.67" x2="3418.608" y1="71.151" y2="71.151" gradientTransform="matrix(-1 0 0 1 3478.5 0)" gradientUnits="userSpaceOnUse"><stop offset="0" stop-color="#416d99" class="stopColor416d99 svgShape"></stop><stop offset="1" stop-color="#244d77" class="stopColor244d77 svgShape"></stop></linearGradient><path fill="url(#o)" d="M61.7,70.8l0.1,0.4c0.1,0.1,0,0.3-0.2,0.3l-1.5,0c-0.2,0-0.3-0.3-0.1-0.4l0.9-0.3L61.7,70.8z"></path><linearGradient id="p" x1="3420.303" x2="3424.929" y1="52.486" y2="52.486" gradientTransform="matrix(-1 0 0 1 3478.5 0)" gradientUnits="userSpaceOnUse"><stop offset="0" stop-color="#f9c7a5" class="stopColorf9c7a5 svgShape"></stop><stop offset="1" stop-color="#f9a395" class="stopColorf9a395 svgShape"></stop></linearGradient><path fill="url(#p)" d="M57.8,54.7c0,0-0.4-0.1-0.9-0.4c-0.5-0.3-1-0.7-1.4-1.2c-0.4-0.5-0.8-1-1-1.4
			c-0.2-0.4-0.4-0.7-0.4-0.7c-1.5-0.5,0.7-1.1,0.9-0.5c0,0,0.2,0.2,0.4,0.5c0.3,0.3,0.7,0.7,1.1,1c0.4,0.3,0.9,0.6,1.2,0.7
			c0.3,0.1,0.5,0.1,0.5,0.1L57.8,54.7z"></path><linearGradient id="q" x1="3416.241" x2="3420.84" y1="51.797" y2="51.797" gradientTransform="matrix(-1 0 0 1 3478.5 0)" gradientUnits="userSpaceOnUse"><stop offset="0" stop-color="#faa34d" class="stopColorfaa34d svgShape"></stop><stop offset="1" stop-color="#ef7b1b" class="stopColoref7b1b svgShape"></stop></linearGradient><path fill="url(#q)" d="M59.4,49.5l-0.4,2.1c-0.1,0.6-0.3,1-0.4,1.1c-0.1,0.1-0.2,0.1-0.4,0.1l-0.5,1.9
			c0.5,0.2,1.1,0.2,1.7,0c1.3-0.5,1.7-1.6,2-2.3l0.8-2C62.7,48.9,59.8,48.1,59.4,49.5z"></path><linearGradient id="r" x1="165.946" x2="160.511" y1="467.481" y2="467.481" gradientTransform="rotate(31.196 841.814 64.264)" gradientUnits="userSpaceOnUse"><stop offset="0" stop-color="#99a9fa" class="stopColor99a9fa svgShape"></stop><stop offset="1" stop-color="#797efc" class="stopColor797efc svgShape"></stop></linearGradient><path fill="url(#r)" d="M68.7,65.5c-0.6-0.4-18.5-9.9-18.5-9.9l-0.6,1c0,0,16.7,11.4,17.3,11.8c0.8,0.5,1.9,0.2,2.4-0.6
				C69.8,67,69.5,66,68.7,65.5z"></path><rect width="6.6" height="11.7" x="48.8" y="51.6" fill="#eef4ff" transform="rotate(31.196 52.095 57.43)" class="colorEEF4FF svgShape"></rect><linearGradient id="s" x1="162.782" x2="162.782" y1="463.872" y2="461.645" gradientTransform="rotate(31.196 841.814 64.264)" gradientUnits="userSpaceOnUse"><stop offset="0" stop-color="#eef4ff" class="stopColoreef4ff svgShape"></stop><stop offset="1" stop-color="#d1dae8" class="stopColord1dae8 svgShape"></stop></linearGradient><polygon fill="url(#s)" points="55.9 57.5 58 54.1 52.3 50.7 50.3 54"></polygon><linearGradient id="t" x1="1491.9" x2="1491.9" y1="-340.174" y2="-342.402" gradientTransform="rotate(-148.804 826.993 61.427)" gradientUnits="userSpaceOnUse"><stop offset="0" stop-color="#eef4ff" class="stopColoreef4ff svgShape"></stop><stop offset="1" stop-color="#d1dae8" class="stopColord1dae8 svgShape"></stop></linearGradient><polygon fill="url(#t)" points="48.3 57.4 46.2 60.7 51.9 64.1 53.9 60.8"></polygon><linearGradient id="u" x1="802.977" x2="820.459" y1="1110.525" y2="1128.006" gradientTransform="rotate(31.196 841.814 64.264)" gradientUnits="userSpaceOnUse"><stop offset="0" stop-color="#99a9fa" class="stopColor99a9fa svgShape"></stop><stop offset="1" stop-color="#797efc" class="stopColor797efc svgShape"></stop></linearGradient><polygon fill="url(#u)" points="53 62.3 53.9 60.9 48.2 57.5 47.4 58.8"></polygon><linearGradient id="v" x1="805.825" x2="823.307" y1="1107.677" y2="1125.158" gradientTransform="rotate(31.196 841.814 64.264)" gradientUnits="userSpaceOnUse"><stop offset="0" stop-color="#99a9fa" class="stopColor99a9fa svgShape"></stop><stop offset="1" stop-color="#797efc" class="stopColor797efc svgShape"></stop></linearGradient><polygon fill="url(#v)" points="56 57.4 56.8 56 51.1 52.6 50.3 54"></polygon><g><linearGradient id="w" x1="158.355" x2="167.208" y1="461.639" y2="461.639" gradientTransform="rotate(31.196 841.814 64.264)" gradientUnits="userSpaceOnUse"><stop offset="0" stop-color="#e6edf5" class="stopColore6edf5 svgShape"></stop><stop offset="1" stop-color="#c6d3e0" class="stopColorc6d3e0 svgShape"></stop></linearGradient><path fill="url(#w)" d="M58,55l-6.4-3.9c-0.3-0.2-0.4-0.6-0.2-0.9l0,0c0.2-0.3,0.6-0.4,0.9-0.2l6.4,3.9
					c0.3,0.2,0.4,0.6,0.2,0.9v0C58.7,55,58.3,55.1,58,55z"></path><linearGradient id="x" x1="158.355" x2="167.208" y1="473.324" y2="473.324" gradientTransform="rotate(31.196 841.814 64.264)" gradientUnits="userSpaceOnUse"><stop offset="0" stop-color="#e6edf5" class="stopColore6edf5 svgShape"></stop><stop offset="1" stop-color="#c6d3e0" class="stopColorc6d3e0 svgShape"></stop></linearGradient><path fill="url(#x)" d="M51.9,64.9l-6.4-3.9c-0.3-0.2-0.4-0.6-0.2-0.9l0,0c0.2-0.3,0.6-0.4,0.9-0.2l6.4,3.9
					c0.3,0.2,0.4,0.6,0.2,0.9h0C52.7,65,52.2,65.1,51.9,64.9z"></path></g><g><linearGradient id="y" x1="49.707" x2="49.707" y1="68.68" y2="69.921" gradientUnits="userSpaceOnUse"><stop offset="0" stop-color="#f1f5fd" class="stopColorf1f5fd svgShape"></stop><stop offset="1" stop-color="#aac8f9" class="stopColoraac8f9 svgShape"></stop></linearGradient><path fill="url(#y)" d="M57.3,70c-0.4-0.8-1.2-1.3-2.1-1.3h-11c-0.9,0-1.7,0.5-2.1,1.3H57.3z"></path><linearGradient id="z" x1="49.707" x2="49.707" y1="69.967" y2="71.079" gradientUnits="userSpaceOnUse"><stop offset="0" stop-color="#f1f5fd" class="stopColorf1f5fd svgShape"></stop><stop offset="1" stop-color="#aac8f9" class="stopColoraac8f9 svgShape"></stop></linearGradient><path fill="url(#z)" d="M57.7,71.1c0.7,0,0.8-1,0.1-1.1c-0.1,0-0.2,0-0.3,0H42c-0.1,0-0.2,0-0.3,0
				C41,70,41,71.1,41.7,71.1H57.7z"></path></g><linearGradient id="A" x1="32.312" x2="38.628" y1="41.636" y2="41.636" gradientUnits="userSpaceOnUse"><stop offset="0" stop-color="#f1f5fd" class="stopColorf1f5fd svgShape"></stop><stop offset="1" stop-color="#aac8f9" class="stopColoraac8f9 svgShape"></stop></linearGradient><rect width="6.3" height=".6" x="32.3" y="41.3" fill="url(#A)"></rect><linearGradient id="B" x1="32.312" x2="38.628" y1="43.04" y2="43.04" gradientUnits="userSpaceOnUse"><stop offset="0" stop-color="#f1f5fd" class="stopColorf1f5fd svgShape"></stop><stop offset="1" stop-color="#aac8f9" class="stopColoraac8f9 svgShape"></stop></linearGradient><rect width="6.3" height=".6" x="32.3" y="42.7" fill="url(#B)"></rect><linearGradient id="C" x1="32.312" x2="38.628" y1="44.444" y2="44.444" gradientUnits="userSpaceOnUse"><stop offset="0" stop-color="#f1f5fd" class="stopColorf1f5fd svgShape"></stop><stop offset="1" stop-color="#aac8f9" class="stopColoraac8f9 svgShape"></stop></linearGradient><rect width="6.3" height=".6" x="32.3" y="44.2" fill="url(#C)"></rect><linearGradient id="D" x1="32.312" x2="36.523" y1="45.849" y2="45.849" gradientUnits="userSpaceOnUse"><stop offset="0" stop-color="#f1f5fd" class="stopColorf1f5fd svgShape"></stop><stop offset="1" stop-color="#aac8f9" class="stopColoraac8f9 svgShape"></stop></linearGradient><rect width="4.2" height=".6" x="32.3" y="45.6" fill="url(#D)"></rect><g><path fill="#eef4ff" d="M19.2,39.4c-1.1-0.4-2-1.3-2.5-2.5c0.4-0.4,0.8-0.9,1.4-1.4c-0.2,1.2,0.5,2.1,1.2,2.4
				C19,38.2,18.9,38.8,19.2,39.4z" class="colorEEF4FF svgShape"></path><ellipse cx="18" cy="37.6" fill="#d1dae8" rx=".4" ry=".3" transform="rotate(77.344 18.017 37.6)" class="colorD1DAE8 svgShape"></ellipse><path fill="#eef4ff" d="M21.3,39.7c-0.1-0.8,0.1-1.7,0.8-2.4c0.4,0.2,0.8,0.2,1.3,0.4c-0.8,0.3-1.2,1-1.1,1.6
				C22,39.2,21.6,39.3,21.3,39.7z" class="colorEEF4FF svgShape"></path><ellipse cx="22" cy="38.3" fill="#d1dae8" rx=".3" ry=".2" transform="scale(-1) rotate(-40.767 -103.069 59.271)" class="colorD1DAE8 svgShape"></ellipse><g><path fill="#eef4ff" d="M19.1,41.5c-0.9,0.9-2.2,1.3-3.7,1.2c-0.1-0.6-0.4-1.3-0.6-2c1.1,0.8,2.3,0.6,2.9,0
				C17.9,41.2,18.3,41.5,19.1,41.5z" class="colorEEF4FF svgShape"></path><ellipse cx="16.7" cy="41.8" fill="#d1dae8" rx=".4" ry=".3" transform="rotate(14.579 16.73 41.808)" class="colorD1DAE8 svgShape"></ellipse></g></g><g><path fill="#ffffff" d="M47.9 41.8c0 .2-.1.3-.2.4-.1.1-.3.1-.5.1-.2 0-.4 0-.5-.1v-.3c.1 0 .2.1.3.1.1 0 .2 0 .3 0 .1 0 .2 0 .3-.1s.1-.1.1-.2c0-.1 0-.1-.1-.2-.1-.1-.2-.1-.3-.2-.2-.1-.3-.2-.4-.2-.1-.1-.1-.2-.1-.3 0-.2.1-.3.2-.4.1-.1.3-.1.5-.1.2 0 .4 0 .6.1l-.1.3c-.2-.1-.3-.1-.5-.1-.1 0-.2 0-.2.1S47 40.8 47 40.9c0 .1 0 .1 0 .1 0 0 .1.1.1.1s.1.1.3.1c.1.1.2.1.3.2.1.1.1.1.1.2C47.9 41.6 47.9 41.7 47.9 41.8zM50 41.3c0 .3-.1.6-.2.7-.2.2-.4.3-.7.3-.3 0-.5-.1-.7-.3s-.2-.4-.2-.7c0-.3.1-.6.2-.7s.4-.3.7-.3c.3 0 .5.1.7.3C49.9 40.8 50 41 50 41.3zM48.5 41.3c0 .2 0 .4.1.5.1.1.2.2.4.2.2 0 .3-.1.4-.2.1-.1.1-.3.1-.5 0-.2 0-.4-.1-.5s-.2-.2-.4-.2c-.2 0-.3.1-.4.2S48.5 41.1 48.5 41.3zM50.4 42.3v-1.9h.3V42h.8v.3H50.4zM53.5 41.3c0 .3-.1.6-.3.7-.2.2-.4.3-.8.3h-.5v-1.9h.6c.3 0 .5.1.7.2C53.4 40.8 53.5 41 53.5 41.3zM53.1 41.3c0-.5-.2-.7-.6-.7h-.3v1.4h.2C52.9 42.1 53.1 41.8 53.1 41.3z" class="colorFFF svgShape"></path></g><g><linearGradient id="E" x1="39.868" x2="39.868" y1="63.992" y2="61.888" gradientUnits="userSpaceOnUse"><stop offset="0" stop-color="#e6edf5" class="stopColore6edf5 svgShape"></stop><stop offset="1" stop-color="#c6d3e0" class="stopColorc6d3e0 svgShape"></stop></linearGradient><path fill="url(#E)" d="M43.8,61.5v3.9c0,0.2-0.1,0.3-0.2,0.4c-0.1,0.1-0.2,0.1-0.4,0.1h-6.7c-0.1,0-0.3-0.1-0.4-0.1
			c-0.1-0.1-0.2-0.3-0.2-0.4v-3.9H43.8z"></path><linearGradient id="F" x1="39.865" x2="39.865" y1="65.925" y2="63.608" gradientUnits="userSpaceOnUse"><stop offset="0" stop-color="#e6edf5" class="stopColore6edf5 svgShape"></stop><stop offset="1" stop-color="#c6d3e0" class="stopColorc6d3e0 svgShape"></stop></linearGradient><path fill="url(#F)" d="M43.6,65.8c-0.1,0.1-0.2,0.1-0.4,0.1h-6.7c-0.1,0-0.3-0.1-0.4-0.1l3.8-2.8L43.6,65.8z"></path><linearGradient id="G" x1="39.868" x2="39.868" y1="64.2" y2="58.73" gradientUnits="userSpaceOnUse"><stop offset="0" stop-color="#416d99" class="stopColor416d99 svgShape"></stop><stop offset=".335" stop-color="#3c6793" class="stopColor3c6793 svgShape"></stop><stop offset=".79" stop-color="#2d5781" class="stopColor2d5781 svgShape"></stop><stop offset="1" stop-color="#244d77" class="stopColor244d77 svgShape"></stop></linearGradient><path fill="url(#G)" d="M43.8,61.5L40.4,64c-0.3,0.2-0.7,0.2-1.1,0l-3.4-2.6l3.4-2.6c0.3-0.2,0.7-0.2,1.1,0L43.8,61.5z"></path></g><g><linearGradient id="H" x1="61.741" x2="64.888" y1="62.992" y2="62.992" gradientUnits="userSpaceOnUse"><stop offset="0" stop-color="#416d99" class="stopColor416d99 svgShape"></stop><stop offset="1" stop-color="#244d77" class="stopColor244d77 svgShape"></stop></linearGradient><path fill="url(#H)" d="M63.3,55c-0.9,0-1.6,1.1-1.5,1.9c0,0.7,1.4,14,1.4,14l0.8,0c0,0,1-13.3,1-14
			C64.9,56.1,64.2,55,63.3,55z"></path><linearGradient id="I" x1="3414.403" x2="3416.341" y1="71.268" y2="71.268" gradientTransform="matrix(-1 0 0 1 3478.5 0)" gradientUnits="userSpaceOnUse"><stop offset="0" stop-color="#416d99" class="stopColor416d99 svgShape"></stop><stop offset="1" stop-color="#244d77" class="stopColor244d77 svgShape"></stop></linearGradient><path fill="url(#I)" d="M63.9,70.9l0.1,0.4c0.1,0.1,0,0.3-0.2,0.3l-1.5,0c-0.2,0-0.3-0.3-0.1-0.4l0.9-0.3L63.9,70.9z"></path></g><g><linearGradient id="J" x1="3416.181" x2="3416.181" y1="52.358" y2="57.252" gradientTransform="matrix(-1 0 0 1 3478.5 0)" gradientUnits="userSpaceOnUse"><stop offset="0" stop-color="#faa34d" class="stopColorfaa34d svgShape"></stop><stop offset="1" stop-color="#ef7b1b" class="stopColoref7b1b svgShape"></stop></linearGradient><path fill="url(#J)" d="M59.5,56.3c-0.1,1.1,5.3,1.6,5.3,0.5c0-1.2,1.3-7.4-0.6-9c-0.5-0.5-1.9-0.9-2.9-0.5
			C57.7,49,60.3,51.4,59.5,56.3z"></path></g><g><linearGradient id="K" x1="512.729" x2="512.591" y1="46.339" y2="44.566" gradientTransform="matrix(-1 0 0 1 574.199 0)" gradientUnits="userSpaceOnUse"><stop offset="0" stop-color="#f9c7a5" class="stopColorf9c7a5 svgShape"></stop><stop offset="1" stop-color="#f9a395" class="stopColorf9a395 svgShape"></stop></linearGradient><path fill="url(#K)" d="M60.2,44.5l2.6-0.2l0.2,3c-0.9,1.1-2.5,1-1.6,0.1l0-0.5L61,47c-0.6,0-1.2-0.4-1.1-0.9L60.2,44.5z"></path><linearGradient id="L" x1="510.776" x2="516.319" y1="44.377" y2="44.377" gradientTransform="matrix(-1 0 0 1 574.199 0)" gradientUnits="userSpaceOnUse"><stop offset="0" stop-color="#416d99" class="stopColor416d99 svgShape"></stop><stop offset="1" stop-color="#244d77" class="stopColor244d77 svgShape"></stop></linearGradient><path fill="url(#L)" d="M63.3,43.6c0.4,0.8,0,1.8-0.3,2.6c0,0.1-0.1,0.2-0.1,0.2c-0.1,0.1-0.2,0.1-0.3,0.1
			c-0.1,0-0.1-0.1-0.2-0.2c-0.4-0.4,0.1-1.6-0.5-1.6c-0.5,0,0,1-0.5,1.1c-0.3-0.1-0.1-0.9-0.9-0.8c-0.3,0-0.6,0.1-0.9,0.2
			c-0.3,0.1-0.6,0.2-0.9,0.1c-0.5-0.1-0.8-0.5-0.8-0.9s0.2-0.8,0.5-1.1c0.6-0.7,1.6-1.1,2.6-1.1C62,42.3,62.9,42.8,63.3,43.6z"></path></g><g><linearGradient id="M" x1="2819.375" x2="2825.207" y1="455.563" y2="455.563" gradientTransform="scale(-1 1) rotate(-16.284 -14.424 10325.119)" gradientUnits="userSpaceOnUse"><stop offset="0" stop-color="#f9c7a5" class="stopColorf9c7a5 svgShape"></stop><stop offset="1" stop-color="#f9a395" class="stopColorf9a395 svgShape"></stop></linearGradient><path fill="url(#M)" d="M61.9,56.3c0,0-0.3,0.2-0.8,0.4c-0.5,0.2-1.3,0.4-2,0.4c-0.7,0-1.4-0.1-1.9-0.3
				c-0.5-0.1-0.8-0.2-0.8-0.2c-1.4,0.6-0.3-1.2,0.2-0.9c0,0,0.3,0.1,0.7,0.1c0.4,0,1,0.1,1.6,0c0.5-0.1,1-0.3,1.3-0.5
				c0.3-0.2,0.5-0.4,0.5-0.4L61.9,56.3z"></path><g><path fill="#faa34d" d="M62.6,50.5c0,0,0,0.3-0.1,0.8c-0.1,0.5-0.2,1.1-0.4,1.7c-0.2,0.6-0.5,1.1-0.8,1.4
					C61,54.8,60.8,55,60.8,55l1,1.4c0,0,0.4-0.2,0.8-0.6c0.5-0.4,1-1.1,1.4-1.8c0.4-0.7,0.7-1.5,0.9-2c0.2-0.6,0.3-0.9,0.3-0.9
					C65.5,49.4,62.9,49,62.6,50.5z" class="colorFAA34D svgShape"></path></g></g><g><linearGradient id="N" x1="1245.883" x2="1251.359" y1="678.989" y2="678.989" gradientTransform="rotate(31.501 1722.91 -1816.803)" gradientUnits="userSpaceOnUse"><stop offset="0" stop-color="#f1f5fd" class="stopColorf1f5fd svgShape"></stop><stop offset="1" stop-color="#aac8f9" class="stopColoraac8f9 svgShape"></stop></linearGradient><polygon fill="url(#N)" points="14.7 68.3 10 65.4 14.2 58.6 18.9 61.4"></polygon><linearGradient id="O" x1="1251.359" x2="1252.136" y1="678.989" y2="678.989" gradientTransform="rotate(31.501 1722.91 -1816.803)" gradientUnits="userSpaceOnUse"><stop offset="0" stop-color="#f1f5fd" class="stopColorf1f5fd svgShape"></stop><stop offset="1" stop-color="#aac8f9" class="stopColoraac8f9 svgShape"></stop></linearGradient><polygon fill="url(#O)" points="18.9 61.4 15.7 68 14.7 68.3"></polygon><linearGradient id="P" x1="1245.107" x2="1245.883" y1="678.989" y2="678.989" gradientTransform="rotate(31.501 1722.91 -1816.803)" gradientUnits="userSpaceOnUse"><stop offset="0" stop-color="#f1f5fd" class="stopColorf1f5fd svgShape"></stop><stop offset="1" stop-color="#aac8f9" class="stopColoraac8f9 svgShape"></stop></linearGradient><polygon fill="url(#P)" points="14.2 58.6 9.7 64.4 10 65.4"></polygon><g><linearGradient id="Q" x1="1246.994" x2="1250.249" y1="674.488" y2="674.488" gradientTransform="rotate(31.501 1722.91 -1816.803)" gradientUnits="userSpaceOnUse"><stop offset="0" stop-color="#99bbff" class="stopColor9bf svgShape"></stop><stop offset="1" stop-color="#5a88f9" class="stopColor5a88f9 svgShape"></stop></linearGradient><path fill="url(#Q)" d="M17.3,61.6c0,0-0.1-0.1,0-0.1c0.4-0.7,0.7-1.4,0.6-1.9c0-0.5-0.2-0.9-0.5-1
					c-0.6-0.4-1.6,0-2.6,1.5c0,0-0.1,0.1-0.1,0c0,0-0.1-0.1,0-0.1c1-1.7,2.2-2,2.9-1.6s0.9,1.6-0.1,3.3
					C17.4,61.6,17.4,61.6,17.3,61.6z"></path></g><g><linearGradient id="R" x1="2257.312" x2="2259.664" y1="45.92" y2="45.92" gradientTransform="translate(-2235.642)" gradientUnits="userSpaceOnUse"><stop offset="0" stop-color="#f9c7a5" class="stopColorf9c7a5 svgShape"></stop><stop offset="1" stop-color="#f9a395" class="stopColorf9a395 svgShape"></stop></linearGradient><path fill="url(#R)" d="M23.3,44.3c0.3,0.2,0.5,0.4,0.6,0.7c0.1,0.3,0.2,0.6,0,0.9c-0.1,0.3-0.4,0.5-0.7,0.5
				c0,0.4,0.1,0.8,0.1,1.3c-0.5,0-1,0-1.5,0.1c-0.1-0.7-0.2-1.5-0.3-2.2C22.2,45,22.8,44.6,23.3,44.3C23.3,44.2,23.3,44.2,23.3,44.3
				z"></path><path fill="#f9a395" d="M18.2,53.8c0,0,0,0.3-0.1,0.8c-0.1,0.5-0.1,1-0.3,1.6c-0.1,0.6-0.3,1.1-0.4,1.5
						c-0.1,0.4-0.3,0.7-0.3,0.7c-0.7,0.2-0.5,0.4-0.2,0.6c0.3,0.2,0.9,0.2,1-0.1c0,0,0.2-0.3,0.4-0.7c0.2-0.4,0.5-1,0.7-1.6
						c0.2-0.6,0.4-1.2,0.6-1.6c0.1-0.4,0.2-0.7,0.2-0.7L18.2,53.8z" class="colorF9A395 svgShape"></path><path fill="#ee6b6b" d="M22.3,50.1c0,0-0.2,0.1-0.5,0.4c-0.3,0.3-0.6,0.8-0.9,1.3c-0.3,0.5-0.5,1.2-0.7,1.6
						c-0.2,0.5-0.3,0.8-0.3,0.8l-1.7-0.4c0,0,0.1-0.4,0.1-0.9c0.1-0.5,0.2-1.3,0.5-2c0.2-0.7,0.6-1.5,0.9-2c0.3-0.5,0.7-0.8,0.7-0.8
						c0.4-0.3,0.8-0.4,1.1-0.4c0.3,0.1,0.6,0.3,0.8,0.6c0.2,0.3,0.2,0.6,0.3,0.9C22.6,49.6,22.5,49.9,22.3,50.1z" class="colorEE6B6B svgShape"></path><linearGradient id="S" x1="2260.381" x2="2260.381" y1="69.897" y2="56.677" gradientTransform="translate(-2235.642)" gradientUnits="userSpaceOnUse"><stop offset="0" stop-color="#416d99" class="stopColor416d99 svgShape"></stop><stop offset="1" stop-color="#244d77" class="stopColor244d77 svgShape"></stop></linearGradient><path fill="url(#S)" d="M25.1,70.1c0,0,0-0.8,0-2c0-1.2-0.1-2.8-0.2-4.3c-0.1-0.8-0.2-1.5-0.4-2.1
					c-0.2-0.6-0.5-1.1-0.8-1.6c-0.6-0.9-1.2-1.6-1.2-1.7c-0.4-0.6-0.4-1.9,0.4-2.5c0.8-0.6,2.1-0.2,2.5,0.5c0.1,0.1,0.6,1,1.1,2.3
					c0.2,0.7,0.5,1.5,0.6,2.4c0.1,0.9,0.1,1.8,0,2.6c-0.3,3.3-1.1,6.4-1.1,6.4L25.1,70.1z"></path><linearGradient id="T" x1="2260.556" x2="2262.724" y1="70.512" y2="70.512" gradientTransform="translate(-2235.642)" gradientUnits="userSpaceOnUse"><stop offset="0" stop-color="#416d99" class="stopColor416d99 svgShape"></stop><stop offset="1" stop-color="#244d77" class="stopColor244d77 svgShape"></stop></linearGradient><path fill="url(#T)" d="M25.1,70.1l-0.2,0.3c-0.1,0.1,0,0.2,0.2,0.3l1.7,0.3c0.3,0,0.4-0.3,0.1-0.4L26,70.2L25.1,70.1z"></path><linearGradient id="U" x1="2257.128" x2="2257.128" y1="69.897" y2="56.677" gradientTransform="translate(-2235.642)" gradientUnits="userSpaceOnUse"><stop offset="0" stop-color="#416d99" class="stopColor416d99 svgShape"></stop><stop offset="1" stop-color="#244d77" class="stopColor244d77 svgShape"></stop></linearGradient><path fill="url(#U)" d="M19.2,70c0,0,0.2-0.7,0.4-1.9c0.2-1.1,0.5-2.6,0.7-4.1c0.2-1.5,0.2-3,0.1-4.2
					c-0.1-1.2-0.2-2-0.2-2.1c0-0.7,0.7-1.7,1.7-1.8c1-0.1,1.9,0.9,1.9,1.7c0,0.2,0,1.1-0.2,2.4c-0.2,1.3-0.6,2.9-1.1,4.5
					c-0.5,1.5-1.2,3-1.7,4c-0.5,1-0.8,1.7-0.8,1.7L19.2,70z"></path><linearGradient id="V" x1="2254.501" x2="2256.582" y1="70.534" y2="70.534" gradientTransform="translate(-2235.642)" gradientUnits="userSpaceOnUse"><stop offset="0" stop-color="#416d99" class="stopColor416d99 svgShape"></stop><stop offset="1" stop-color="#244d77" class="stopColor244d77 svgShape"></stop></linearGradient><path fill="url(#V)" d="M19.2,70l-0.3,0.3c-0.1,0.1,0,0.2,0.1,0.3l1.6,0.6c0.3,0.1,0.4-0.2,0.2-0.3L20,70.2L19.2,70z"></path><linearGradient id="W" x1="2258.491" x2="2258.491" y1="50.963" y2="57.087" gradientTransform="translate(-2235.642)" gradientUnits="userSpaceOnUse"><stop offset="0" stop-color="#ee6b6b" class="stopColoree6b6b svgShape"></stop><stop offset="1" stop-color="#c43737" class="stopColorc43737 svgShape"></stop></linearGradient><path fill="url(#W)" d="M25.7,56.6c0.1,1.2-5.4,1.7-5.4,0.5c0-1.2-1.3-7.6,0.6-9.4c0.5-0.5,1.9-0.9,2.9-0.5
						C27.6,48.7,24.9,51.5,25.7,56.6z"></path><g><linearGradient id="X" x1="2264.876" x2="2264.8" y1="39.527" y2="44.523" gradientTransform="translate(-2235.642)" gradientUnits="userSpaceOnUse"><stop offset="0" stop-color="#f9c7a5" class="stopColorf9c7a5 svgShape"></stop><stop offset="1" stop-color="#f9a395" class="stopColorf9a395 svgShape"></stop></linearGradient><path fill="url(#X)" d="M29.9,45c0,0,0-0.1,0.1-0.3c0-0.2,0.1-0.5,0.1-0.7c0-0.6-0.2-1.2-0.3-1.8
						c-0.2-1.2-0.4-2.5-0.4-2.5c0.9-1.2-1.1-0.6-0.9,0.1c0,0,0,1.3,0,2.5c0,0.6,0,1.3,0,1.6c-0.1,0.4-0.1,0.5-0.1,0.5L29.9,45z"></path><g><path fill="#ee6b6b" d="M24.2,47.5c0,0,1.1-0.8,2.3-1.7c0.3-0.2,0.6-0.4,0.8-0.6c0.3-0.2,0.5-0.3,0.6-0.5
							c0.1-0.1,0.2-0.2,0.3-0.3c0-0.1,0.1-0.1,0.1-0.1l1.7,0.5c0,0,0,0.1-0.1,0.3c-0.1,0.2-0.2,0.5-0.4,0.8
							c-0.2,0.3-0.5,0.6-0.7,0.8c-0.2,0.2-0.5,0.5-0.7,0.8c-1,1-2,2-2,2C24.8,50.6,23,48.6,24.2,47.5z" class="colorEE6B6B svgShape"></path></g></g><linearGradient id="Y" x1="2258.432" x2="2257.182" y1="42.481" y2="46.884" gradientTransform="translate(-2235.642)" gradientUnits="userSpaceOnUse"><stop offset="0" stop-color="#416d99" class="stopColor416d99 svgShape"></stop><stop offset="1" stop-color="#244d77" class="stopColor244d77 svgShape"></stop></linearGradient><path fill="url(#Y)" d="M23.2,44.6c0.5,0,1-0.5,1-1c0-0.4-0.2-0.7-0.4-1c-0.3-0.2-0.6-0.4-1-0.4c-0.3,0-0.7,0.1-1,0.3
				c-0.5,0.3-0.9,0.7-1.1,1.2c-0.2,0.6-0.3,1.1-0.2,1.7c0.1,0.4,0.3,0.9,0.6,1.2c0.2,0.2,0.5,0.5,0.8,0.5c0.2,0.1,0.5,0.1,0.7-0.1
				c0.2-0.1,0.4-0.2,0.5-0.5c0-0.2-0.1-0.4-0.2-0.5c-0.1-0.2-0.3-0.3-0.3-0.5s0.1-0.4,0.3-0.5c0.2,0,0.3,0.1,0.5,0.1
				c0.1,0,0.2-0.2,0.1-0.3C23.4,44.8,23.3,44.7,23.2,44.6z"></path></g></g></svg>