<svg id="SvgjsSvg1001" width="550" height="550" xmlns="http://www.w3.org/2000/svg" version="1.1" xmlns:xlink="http://www.w3.org/1999/xlink" xmlns:svgjs="http://svgjs.com/svgjs"><defs id="SvgjsDefs1002"></defs><g id="SvgjsG1008"><svg xmlns="http://www.w3.org/2000/svg" data-name="Layer 1" viewBox="0 0 3000 3000" width="550" height="550"><g data-name="Forgot password"><path fill="#eef1f8" d="M1302.2779,2433.0244s-655.388-333.3465-464.73282-837.794S1830.5604,796.8511,2299.2616,836.5626s522.3269,539.0094,434.5141,758.6678-392.4341,837.794-392.4341,837.794Z" data-name="Path 14124" class="coloreef1f8 svgShape"></path><g data-name="Group 12514"><path fill="#ffaa71" d="M1501.7916,1315.3814h742.3226a44.7954,44.7954,0,0,1,44.7954,44.7954v659.1313a44.7954,44.7954,0,0,1-44.7954,44.7954H1501.7915a44.7953,44.7953,0,0,1-44.7953-44.7953V1360.1768A44.7954,44.7954,0,0,1,1501.7916,1315.3814Z" data-name="Rectangle 2161" class="colorffaa71 svgShape"></path><g data-name="Group 12512"><rect width="563.141" height="76.792" x="1591.382" y="1552.157" fill="#ffffff" data-name="Rectangle 2162" class="colorfff svgShape"></rect><g data-name="Group 12511"><circle cx="1757.765" cy="1590.553" r="12.799" data-name="Ellipse 1562" transform="rotate(-45 1757.765 1590.553)" fill="#000000" class="color000 svgShape"></circle><circle cx="1808.96" cy="1590.553" r="12.799" data-name="Ellipse 1562-2" transform="rotate(-76.718 1808.96 1590.553)" fill="#000000" class="color000 svgShape"></circle><circle cx="1860.154" cy="1590.553" r="12.799" data-name="Ellipse 1562-3" fill="#000000" class="color000 svgShape"></circle><circle cx="1911.349" cy="1590.553" r="12.799" data-name="Ellipse 1562-4" transform="rotate(-45 1911.349 1590.553)" fill="#000000" class="color000 svgShape"></circle><circle cx="1962.544" cy="1590.553" r="12.799" data-name="Ellipse 1562-5" transform="rotate(-76.718 1962.543 1590.553)" fill="#000000" class="color000 svgShape"></circle><circle cx="2013.738" cy="1590.553" r="12.799" data-name="Ellipse 1562-6" fill="#000000" class="color000 svgShape"></circle></g></g><g data-name="Group 12513"><rect width="563.141" height="76.792" x="1591.382" y="1699.341" fill="#ffffff" data-name="Rectangle 2162-2" class="colorfff svgShape"></rect><g data-name="Group 12511-2"><circle cx="1757.765" cy="1737.737" r="12.799" data-name="Ellipse 1562-7" transform="rotate(-45 1757.765 1737.737)" fill="#000000" class="color000 svgShape"></circle><circle cx="1808.96" cy="1737.737" r="12.799" data-name="Ellipse 1562-8" transform="rotate(-76.718 1808.96 1737.737)" fill="#000000" class="color000 svgShape"></circle><circle cx="1860.154" cy="1737.737" r="12.799" data-name="Ellipse 1562-9" fill="#000000" class="color000 svgShape"></circle><circle cx="1911.349" cy="1737.737" r="12.799" data-name="Ellipse 1562-10" transform="rotate(-45 1911.349 1737.737)" fill="#000000" class="color000 svgShape"></circle><circle cx="1962.544" cy="1737.737" r="12.799" data-name="Ellipse 1562-11" transform="rotate(-76.718 1962.543 1737.737)" fill="#000000" class="color000 svgShape"></circle><circle cx="2013.738" cy="1737.737" r="12.799" data-name="Ellipse 1562-12" fill="#000000" class="color000 svgShape"></circle></g></g><path fill="#6e6d6d" d="M1604.1808,1852.9255h537.5441a12.7987,12.7987,0,0,1,12.7987,12.7987v51.1946a12.7987,12.7987,0,0,1-12.7987,12.7987h-537.544a12.7987,12.7987,0,0,1-12.7987-12.7987v-51.1947A12.7986,12.7986,0,0,1,1604.1808,1852.9255Z" data-name="Rectangle 2163" class="color6e6d6d svgShape"></path></g><path fill="#ff7171" d="M1967.9766,1218.604a134.39286,134.39286,0,1,0,0,190.0602A134.39281,134.39281,0,0,0,1967.9766,1218.604Zm-35.7851,143.1275a7.87349,7.87349,0,0,1-11.1348,11.1348l-48.1038-48.1037-48.1038,48.1037a7.87353,7.87353,0,0,1-11.1349-11.1348l48.1038-48.1038-48.1038-48.1038a7.87353,7.87353,0,0,1,11.1349-11.1348l48.1038,48.1038,48.1038-48.1038a7.87349,7.87349,0,0,1,11.1348,11.1348l-48.1038,48.1038Z" data-name="Path 14116" class="colorff7171 svgShape"></path><g data-name="Group 12518"><path fill="#ffd0a6" d="M1164.3642,1693.5827s-13.0362,171.554-8.9616,227.645,21.4165,56.0911,21.4165,46.9139-6.1118-44.8735,4.0808-35.6963,9.1803-21.4196,0-35.6963,6.1244-176.4285,24.4787-198.8668Z" data-name="Path 14120" class="colorffd0a6 svgShape"></path><g data-name="Group 12515"><rect width="31.997" height="31.997" x="1233.02" y="2371.271" fill="#ffd0a6" data-name="Rectangle 2164" class="colorffd0a6 svgShape"></rect><path fill="#663e36" d="M1231.9634,2392.5505v40.7958h80.8041c26.6847,0-29.8157-19.6136-43.933-40.7958Z" data-name="Path 14123" class="color663e36 svgShape"></path></g><g data-name="Group 12516"><rect width="31.997" height="31.997" x="1361.006" y="2371.271" fill="#ffd0a6" data-name="Rectangle 2164-2" class="colorffd0a6 svgShape"></rect><path fill="#663e36" d="M1359.95,2392.5505v40.7958h80.8041c26.6848,0-29.8156-19.6136-43.9329-40.7958Z" data-name="Path 14123-2" class="color663e36 svgShape"></path></g><path fill="#663e36" d="M1210.6843,1849.2133s-18.9605,91.3499,15.5109,227.5076c-31.0217,153.3934,0,299.8906,0,299.8906h44.7954s29.3032-272.3185,20.6853-372.2799c0,0,25.8473,79.2823,44.7953,91.3436-17.2357,56.8784,22.3977,280.9301,22.3977,280.9301h36.1962s24.135-274.0402,0-355.0474a1598.42322,1598.42322,0,0,1-38.9459-172.3539Z" data-name="Path 14122" class="color663e36 svgShape"></path><path fill="#ffd0a6" d="M1446.1161,1580.7819l28.5533-11.3207s-73.4299-93.8215-117.2816-109.1199-23.4538-30.5936-7.1367-25.4942-7.143-21.4196-7.143-21.4196,162.1518,116.2566,175.4129,156.0337-72.4049,48.1294-72.4049,48.1294Z" data-name="Path 14121" class="colorffd0a6 svgShape"></path><path fill="#af5cf6" d="M1174.6693,1637.4229l-13.2611,63.6402,38.446,11.9269,14.586-11.9269s14.5797,114.0101-7.9554,155.112h151.1405s-22.5352-161.7488,13.2611-209.475c16.892-23.9413,82.8101-27.6565,82.8101-27.6565v-41.7738s-96.5524-11.6082-132.7611,2.7841S1174.6693,1637.4229,1174.6693,1637.4229Z" data-name="Path 14119" class="coloraf5cf6 svgShape"></path><g data-name="Group 12517"><path fill="#f7d8b8" d="M1348.795,1461.285s25.8848,39.2209,6.2743,70.6051-39.2272,13.3362-39.2272,13.3362Z" data-name="Path 14118" class="colorf7d8b8 svgShape"></path><path fill="#112129" d="M1325.7161,1402.1568s-60.1562-22.4352-77.5107,44.8734-79.5417,85.6692-109.1199,131.5582,53.032,113.1976,103.0268,77.5076c4.0808,29.5781,123.4059,33.6527,105.0453-52.0071s15.2984-123.3997,15.2984-157.0524S1325.7161,1402.1568,1325.7161,1402.1568Z" data-name="Path 14117" class="color112129 svgShape"></path></g></g><g data-name="Group 12522"><path fill="#ffaa71" d="M1715.9627,1075.4771a9.20215,9.20215,0,1,0,5.1104,4.8475A9.20242,9.20242,0,0,0,1715.9627,1075.4771Z" data-name="Path 13469" class="colorffaa71 svgShape"></path><path fill="#ffaa71" d="M1753.7735,1065.7661a63.70106,63.70106,0,0,0-121.1564,35.5559l-136.9589,60.9731,13.6674,30.6976,16.0392-7.1411,7.7521,17.4116,28.6969-12.7767-7.7521-17.4116,21.4958-9.5705,7.7521,17.4116,28.6969-12.7767-7.7568-17.3996,42.0348-18.7201a63.70135,63.70135,0,0,0,108.7637-17.5214A63.2769,63.2769,0,0,0,1753.7735,1065.7661Zm-31.9608,38.8326a22.39473,22.39473,0,1,1,.1429-.0636Q1721.88435,1104.5672,1721.8127,1104.5987Z" data-name="Path 13470" class="colorffaa71 svgShape"></path></g><g data-name="Group 12521"><path fill="#ffaa71" d="M2182.2489,1205.5446a5.5033,5.5033,0,1,0,1.1994,4.0436A5.50353,5.50353,0,0,0,2182.2489,1205.5446Z" data-name="Path 13469-2" class="colorffaa71 svgShape"></path><path fill="#ffaa71" d="M2204.75,1211.8342a38.11682,38.11682,0,0,0-73.4177-17.8355l-89.1945-9.3747-2.101,19.9899,10.4495,1.0983-1.1919,11.3406,18.6889,1.9688,1.192-11.3405,13.9957,1.471-1.192,11.3405,18.685,1.9639,1.1919-11.3406,27.3794,2.8777a38.11654,38.11654,0,0,0,61.5929,23.4586A37.85193,37.85193,0,0,0,2204.75,1211.8342Zm-28.1652,10.5303a13.39008,13.39008,0,1,1,.0869.0092Z" data-name="Path 13470-2" class="colorffaa71 svgShape"></path></g><g data-name="Group 12520"><g data-name="Group 12523"><circle cx="1234.082" cy="1337.805" r="41.564" fill="#ffaa71" data-name="Ellipse 315" transform="rotate(-22.5 1234.092 1337.817)" class="colorffaa71 svgShape"></circle><circle cx="1102.985" cy="1245.078" r="73.541" fill="#ffaa71" data-name="Ellipse 316" transform="rotate(-45 1102.985 1245.078)" class="colorffaa71 svgShape"></circle><path fill="#ffaa71" d="M1044.7422,1054.9029s160.8208-35.9447,138.1169-183.52-179.7375-121.0881-179.7375-121.0881,0-94.6011-70.00522-122.9825c-64.3246-24.599-124.8683-3.7817-149.4657,37.839-13.2486-58.6501-126.0306-124.4347-224.99529-88.0549s-132.5893,122.106-132.5893,158.0632c-71.8894-11.3527-206.41609,62.0733-194.1173,212.0928s154.9526,184.4675,209.0657,182.0099c3.9808,80.7854,100.4677,129.9771,142.0946,131.8715s124.86819,1.9201,174.06309-85.1115c47.3013,51.0861,128.6616,62.438,183.5309,43.5158s105.27652-76.4788,104.03912-164.5969" data-name="Path 12467" class="colorffaa71 svgShape"></path></g><g data-name="Group 12519"><path fill="#ffffff" d="M862.32018,984.2183a13.73288,13.73288,0,1,0-3.1568,10.0275A13.73292,13.73292,0,0,0,862.32018,984.2183Z" data-name="Path 13469-3" class="colorfff svgShape"></path><path fill="#ffffff" d="M900.07278,1028.5468a95.05529,95.05529,0,0,0-126.9361-139.2366L601.77378,745.5196l-32.22759,38.4072,20.0703,16.841-18.2837,21.7895,35.90459,30.1275,18.2709-21.7884,26.8995,22.5773-18.2836,21.7895,35.9045,30.1275,18.2836-21.7895,52.5986,44.1354a95.05138,95.05138,0,0,0,94.6379,134.3988A94.42259,94.42259,0,0,0,900.06,1028.5479Zm-72.9862-17.466a33.42323,33.42323,0,1,1,.1607.1349Q827.16673,1011.1485,827.08658,1011.0808Z" data-name="Path 13470-3" class="colorfff svgShape"></path></g></g></g></svg></g></svg>