<svg width="429" height="79.7455463138893" viewBox="0 0 370 68.77821010755022" class="looka-1j8o68f"><defs id="SvgjsDefs1363"></defs><g id="SvgjsG1364" featurekey="4K7G0D-0" transform="matrix(0.721645176410675,0,0,0.721645176410675,-1.0824678421959626,-1.6976685161938831)" fill="#2d185c"><title xmlns="http://www.w3.org/2000/svg">Artboard 21</title><path xmlns="http://www.w3.org/2000/svg" d="M64.11,19.47A2.5,2.5,0,1,1,68.43,17l7.41,12.75a2.5,2.5,0,1,1-4.32,2.51ZM23.29,36.55a8.34,8.34,0,0,1,8.15-12.49,8.52,8.52,0,0,1,1.4.29A54.74,54.74,0,0,1,59.68,8.75,8.34,8.34,0,0,1,75,6.5L88.19,29.17a8.33,8.33,0,0,1-9.55,12.2A54.74,54.74,0,0,1,51.79,57a8.32,8.32,0,0,1-8.09,6.41,8.53,8.53,0,0,1-1-.06,8.4,8.4,0,0,1-6.26-4.1ZM27.61,34,40.79,56.71A3.34,3.34,0,0,0,47,55a2.5,2.5,0,0,1,2-2.48A49.85,49.85,0,0,0,76.12,36.73a2.5,2.5,0,0,1,3.14-.49,3.49,3.49,0,0,0,1.36.46,3.25,3.25,0,0,0,2-.42,3.36,3.36,0,0,0,1.22-4.59L70.69,9a3.34,3.34,0,0,0-6.24,1.75,2.5,2.5,0,0,1-2,2.49A49.84,49.84,0,0,0,35.36,29a2.5,2.5,0,0,1-3.14.49A3.51,3.51,0,0,0,30.85,29l-.38,0a3.25,3.25,0,0,0-1.64.44A3.36,3.36,0,0,0,27.61,34ZM69.32,86.52v2.66A6.83,6.83,0,0,1,62.5,96H17.39a6.83,6.83,0,0,1-6.82-6.82V86.52a6.83,6.83,0,0,1,6.82-6.82h.33l.15-.45A9.59,9.59,0,0,1,27,72.58H52.87A9.59,9.59,0,0,1,62,79.24l.15.45h.33A6.83,6.83,0,0,1,69.32,86.52Zm-5,0A1.82,1.82,0,0,0,62.5,84.7H60.41a2.5,2.5,0,0,1-2.34-1.62c-.23-.6-.48-1.27-.81-2.3a4.6,4.6,0,0,0-4.4-3.2H27a4.6,4.6,0,0,0-4.39,3.2c-.33,1-.59,1.71-.81,2.3a2.5,2.5,0,0,1-2.34,1.62H17.39a1.82,1.82,0,0,0-1.82,1.82v2.66A1.82,1.82,0,0,0,17.39,91H62.5a1.82,1.82,0,0,0,1.82-1.82ZM76.15,51.29a2.5,2.5,0,0,0-4,3l20,27a7.15,7.15,0,1,1-12.29,7.16L66.32,57.65a2.5,2.5,0,1,0-4.58,2l13.5,30.79a12.16,12.16,0,0,0,9.7,7.14,12,12,0,0,0,1.39.08A12.15,12.15,0,0,0,96.13,78.3ZM43,48.76a2.5,2.5,0,1,0,4.32-2.51L40,33.5A2.5,2.5,0,1,0,35.64,36Zm-28.74,24v-2.2a9.53,9.53,0,0,0,7.8-9.38c0-2.74-1.26-7.62-9.65-9.57l-.09,0C6.5,50.29,6.5,47.75,6.5,46.92c0-3.2,2.75-4.65,5.31-4.65a5.29,5.29,0,0,1,4.46,2.44A2.5,2.5,0,1,0,20.47,42a10.27,10.27,0,0,0-6.16-4.42V35.34a2.5,2.5,0,1,0-5,0v2.2A9.54,9.54,0,0,0,1.5,46.92c0,2.74,1.26,7.62,9.65,9.57l.09,0c5.86,1.34,5.86,3.88,5.86,4.72,0,3.2-2.75,4.65-5.31,4.65a5.3,5.3,0,0,1-4.9-3.25,2.5,2.5,0,1,0-4.61,1.93,10.28,10.28,0,0,0,7,6v2.23a2.5,2.5,0,1,0,5,0Z"></path></g><g id="SvgjsG1365" featurekey="wPuqcM-0" transform="matrix(1.8365472555160522,0,0,1.8365472555160522,88.34710821139197,0.34802583044849733)" fill="#2d185c"><path d="M8.16 5.800000000000001 c3.9 0 7.26 2.94 7.26 7.2 s-3.36 7.2 -7.26 7.2 s-7.26 -2.94 -7.26 -7.2 s3.36 -7.2 7.26 -7.2 z M8.16 17.46 c2.36 0 4.22 -1.86 4.22 -4.46 s-1.86 -4.46 -4.22 -4.46 s-4.22 1.86 -4.22 4.46 s1.86 4.46 4.22 4.46 z M23.54 9.44 c1.98 0 3.94 1.3 3.94 4.58 l0 5.98 l-2.86 0 l0 -5.78 c0 -1.7 -0.66 -2.28 -1.76 -2.28 c-1.52 0 -2.42 1.44 -2.64 2.16 l0 5.9 l-2.86 0 l0 -10.4 l2.86 0 l0 1.92 c0.2 -0.54 1.32 -2.08 3.32 -2.08 z M32.28 5.859999999999999 l0 14.14 l-2.86 0 l0 -14.14 l2.86 0 z M37.22 5.859999999999999 l0 2.44 l-2.86 0 l0 -2.44 l2.86 0 z M37.22 9.6 l0 10.4 l-2.86 0 l0 -10.4 l2.86 0 z M45.48 9.44 c1.98 0 3.94 1.3 3.94 4.58 l0 5.98 l-2.86 0 l0 -5.78 c0 -1.7 -0.66 -2.28 -1.76 -2.28 c-1.52 0 -2.42 1.44 -2.64 2.16 l0 5.9 l-2.86 0 l0 -10.4 l2.86 0 l0 1.92 c0.2 -0.54 1.32 -2.08 3.32 -2.08 z M56.480000000000004 9.42 c2.36 0 5.62 1.78 5 6.38 l-7.56 0 c0.36 1.3 1.44 1.98 2.84 1.98 c1.3 0 1.8 -0.3 2.54 -0.7 l1.58 1.54 c-0.9 0.94 -2.18 1.58 -4.22 1.58 c-2.6 0 -5.64 -1.78 -5.64 -5.36 c0 -3.64 3.1 -5.42 5.46 -5.42 z M56.480000000000004 11.86 c-1.04 0 -2.14 0.64 -2.52 1.92 l5 0 c-0.32 -1.28 -1.46 -1.92 -2.48 -1.92 z M80.63999999999999 20 l-1.06 -2.5 l-6.76 0 l-1.06 2.5 l-3.1 0 l6.22 -14 l2.64 0 l6.24 14 l-3.12 0 z M73.83999999999999 15.120000000000001 l4.72 0 l-2.36 -5.54 z M89 20.16 c-1.98 0 -3.94 -1.3 -3.94 -4.58 l0 -5.98 l2.86 0 l0 5.78 c0 1.7 0.66 2.28 1.76 2.28 c1.52 0 2.42 -1.44 2.64 -2.16 l0 -5.9 l2.86 0 l0 10.4 l-2.86 0 l0 -1.92 c-0.2 0.54 -1.32 2.08 -3.32 2.08 z M102.34 9.42 c1.9 0 3.5 0.82 4.48 2.5 l-2.2 1.02 c-0.56 -0.56 -1.1 -0.98 -2.24 -0.98 c-1.3 0 -2.68 0.98 -2.68 2.86 c0 1.86 1.38 2.82 2.68 2.82 c1.14 0 1.68 -0.4 2.24 -0.96 l2.22 1.02 c-1 1.68 -2.56 2.46 -4.5 2.46 c-2.32 0 -5.42 -1.68 -5.42 -5.34 c0 -3.62 3.1 -5.4 5.42 -5.4 z M113.22 17.6 c0.54 0 0.94 -0.06 1.38 -0.22 l0 2.4 c-0.44 0.2 -1.12 0.34 -2.12 0.34 c-1.62 0 -2.98 -0.56 -2.98 -3.5 l0 -4.66 l-1.46 0 l0 -2.36 l1.46 0 l0 -2.44 l2.86 0 l0 2.44 l2.22 0 l0 2.36 l-2.22 0 l0 4.64 c0 0.48 0.14 1 0.86 1 z M119.18 5.859999999999999 l0 2.44 l-2.86 0 l0 -2.44 l2.86 0 z M119.18 9.6 l0 10.4 l-2.86 0 l0 -10.4 l2.86 0 z M126.38 9.42 c2.36 0 5.44 1.78 5.44 5.42 s-3.08 5.36 -5.44 5.36 s-5.46 -1.72 -5.46 -5.36 s3.1 -5.42 5.46 -5.42 z M126.38 11.96 c-1.3 0 -2.68 0.98 -2.68 2.88 c0 1.84 1.38 2.82 2.68 2.82 c1.28 0 2.68 -0.98 2.68 -2.82 c0 -1.9 -1.4 -2.88 -2.68 -2.88 z M139.74 9.44 c1.98 0 3.94 1.3 3.94 4.58 l0 5.98 l-2.86 0 l0 -5.78 c0 -1.7 -0.66 -2.28 -1.76 -2.28 c-1.52 0 -2.42 1.44 -2.64 2.16 l0 5.9 l-2.86 0 l0 -10.4 l2.86 0 l0 1.92 c0.2 -0.54 1.32 -2.08 3.32 -2.08 z M150.60000000000002 12.719999999999999 c-0.32 -0.74 -0.78 -1.02 -1.34 -1.02 c-0.52 0 -1 0.32 -1 0.78 c0 0.44 0.28 0.72 0.84 0.92 l1.26 0.46 c1.52 0.54 3 1.1 3 3.12 c0 2.08 -2.06 3.26 -4.16 3.26 c-1.9 0 -3.7 -1.12 -4.12 -2.94 l2.26 -0.7 c0.26 0.7 0.82 1.36 1.86 1.36 c0.74 0 1.3 -0.48 1.3 -1 c0 -0.34 -0.24 -0.64 -0.86 -0.88 l-1.2 -0.42 c-2.04 -0.74 -2.98 -1.8 -2.98 -3.22 c0 -1.88 1.74 -3.02 3.68 -3.02 c1.96 0 3.26 1.06 3.86 2.68 z"></path></g><g id="SvgjsG1366" featurekey="Li3fkV-0" transform="matrix(0.7189254760742188,0,0,0.7189254760742188,88.60528467669332,44.06028853477277)" fill="#ff325d"><path d="M6.32 12.08 q1.28 0 2.1 -0.63 t0.84 -1.87 q0 -1.16 -0.82 -1.85 t-2.18 -0.69 l-3 0 l0 5.04 l3.06 0 z M5.98 5.84 q2.16 0 3.36 0.96 t1.24 2.78 q0 1.7 -1.16 2.69 t-3.02 1.01 l-3.14 0 l0 6.72 l-1.32 0 l0 -14.16 l4.04 0 z M28.964 5.84 l0 12.96 l6.6 0 l0 1.2 l-7.92 0 l0 -14.16 l1.32 0 z M53.528000000000006 15.04 l6.5 0 l-3.2 -7.76 z M57.568000000000005 5.84 l5.96 14.16 l-1.48 0 l-1.54 -3.76 l-7.5 0 l-1.6 3.76 l-1.38 0 l6.18 -14.16 l1.36 0 z M89.092 5.84 l0 1.2 l-4.84 0 l0 12.96 l-1.32 0 l0 -12.96 l-4.84 0 l0 -1.2 l11 0 z M113.97600000000001 5.84 l0 1.2 l-7.16 0 l0 5.04 l6.66 0 l0 1.2 l-6.66 0 l0 6.72 l-1.32 0 l0 -14.16 l8.48 0 z M131.24 12.92 q0 2.7 1.66 4.45 t4.34 1.79 q2.7 0 4.34 -1.77 t1.66 -4.47 q0 -2.74 -1.64 -4.47 t-4.38 -1.77 q-2.68 0 -4.32 1.76 t-1.66 4.48 z M137.24 5.48 q2.16 0 3.82 0.95 t2.57 2.66 t0.93 3.83 q0 3.26 -2.06 5.33 t-5.26 2.11 q-3.22 0 -5.24 -2.09 t-2.08 -5.35 q0.02 -3.26 2.04 -5.32 t5.28 -2.12 z M165.964 12.08 q1.54 0 2.38 -0.69 t0.84 -1.83 t-0.82 -1.82 t-2.44 -0.7 l-2.86 0 l0 5.04 l2.9 0 z M165.564 5.84 q4.9 0 4.94 3.72 q0 3.14 -3.62 3.64 l4.12 6.8 l-1.5 0 l-3.98 -6.72 l-2.46 0 l0 6.72 l-1.32 0 l0 -14.16 l3.82 0 z M189.668 5.84 l5.16 11.88 l5.16 -11.88 l1.88 0 l0 14.16 l-1.32 0 l0 -12.48 l-0.04 0 l-5.4 12.48 l-0.58 0 l-5.48 -12.48 l-0.04 0 l0 12.48 l-1.32 0 l0 -14.16 l1.98 0 z"></path></g></svg>