<svg xmlns="http://www.w3.org/2000/svg" xmlns:xlink="http://www.w3.org/1999/xlink" viewBox="0 0 500 500" width="500" height="500" style="width: 100%; height: 100%; transform: translate3d(0px, 0px, 0px);" preserveAspectRatio="xMidYMid meet"><defs><clipPath id="__lottie_element_2217"><rect width="500" height="500" x="0" y="0"></rect></clipPath><linearGradient id="__lottie_element_2221" spreadMethod="pad" gradientUnits="userSpaceOnUse" x1="-103.5" y1="24.5" x2="195.5" y2="139"><stop offset="0%" stop-color="rgb(11,65,114)"></stop><stop offset="50%" stop-color="rgb(11,55,114)"></stop><stop offset="100%" stop-color="rgb(11,45,114)"></stop></linearGradient><clipPath id="__lottie_element_2223"><path d="M0,0 L37,0 L37,36 L0,36z"></path></clipPath><clipPath id="__lottie_element_2227"><path d="M0,0 L37,0 L37,36 L0,36z"></path></clipPath><clipPath id="__lottie_element_2231"><path d="M0,0 L37,0 L37,36 L0,36z"></path></clipPath><clipPath id="__lottie_element_2235"><path d="M0,0 L37,0 L37,36 L0,36z"></path></clipPath><clipPath id="__lottie_element_2239"><path d="M0,0 L115,0 L115,174 L0,174z"></path></clipPath><clipPath id="__lottie_element_2243"><path d="M0,0 L19,0 L19,18 L0,18z"></path></clipPath><linearGradient id="__lottie_element_2265" spreadMethod="pad" gradientUnits="userSpaceOnUse" x1="37.75" y1="-34.75" x2="-30.75" y2="36"><stop offset="0%" stop-color="rgb(0,191,255)"></stop><stop offset="50%" stop-color="rgb(0,153,255)"></stop><stop offset="100%" stop-color="rgb(0,115,255)"></stop></linearGradient><linearGradient id="__lottie_element_2268" spreadMethod="pad" gradientUnits="userSpaceOnUse" x1="-62.25" y1="-46.25" x2="54.75" y2="40.5"><stop offset="0%" stop-color="rgb(0,191,255)"></stop><stop offset="50%" stop-color="rgb(0,153,255)"></stop><stop offset="100%" stop-color="rgb(0,115,255)"></stop></linearGradient><linearGradient id="__lottie_element_2272" spreadMethod="pad" gradientUnits="userSpaceOnUse" x1="-62.25" y1="-46.25" x2="54.75" y2="40.5"><stop offset="0%" stop-color="rgb(0,191,255)"></stop><stop offset="50%" stop-color="rgb(0,153,255)"></stop><stop offset="100%" stop-color="rgb(0,115,255)"></stop></linearGradient><linearGradient id="__lottie_element_2276" spreadMethod="pad" gradientUnits="userSpaceOnUse" x1="-9.25" y1="-11.25" x2="8.75" y2="8.5"><stop offset="0%" stop-color="rgb(0,191,255)"></stop><stop offset="50%" stop-color="rgb(0,153,255)"></stop><stop offset="100%" stop-color="rgb(0,115,255)"></stop></linearGradient><clipPath id="__lottie_element_2278"><path d="M0,0 L19,0 L19,18 L0,18z"></path></clipPath><linearGradient id="__lottie_element_2284" spreadMethod="pad" gradientUnits="userSpaceOnUse" x1="-9.25" y1="-11.25" x2="8.75" y2="8.5"><stop offset="0%" stop-color="rgb(0,191,255)"></stop><stop offset="50%" stop-color="rgb(0,153,255)"></stop><stop offset="100%" stop-color="rgb(0,115,255)"></stop></linearGradient><linearGradient id="__lottie_element_2288" spreadMethod="pad" gradientUnits="userSpaceOnUse" x1="-10.687000274658203" y1="-42.74800109863281" x2="14.121999740600586" y2="-23.281999588012695"><stop offset="0%" stop-color="rgb(0,191,255)"></stop><stop offset="50%" stop-color="rgb(0,153,255)"></stop><stop offset="100%" stop-color="rgb(0,115,255)"></stop></linearGradient><linearGradient id="__lottie_element_2292" spreadMethod="pad" gradientUnits="userSpaceOnUse" x1="-10.687000274658203" y1="-42.74800109863281" x2="14.121999740600586" y2="-23.281999588012695"><stop offset="0%" stop-color="rgb(0,191,255)"></stop><stop offset="50%" stop-color="rgb(0,153,255)"></stop><stop offset="100%" stop-color="rgb(0,115,255)"></stop></linearGradient><linearGradient id="__lottie_element_2296" spreadMethod="pad" gradientUnits="userSpaceOnUse" x1="-10.687000274658203" y1="-42.74800109863281" x2="14.121999740600586" y2="-23.281999588012695"><stop offset="0%" stop-color="rgb(0,191,255)"></stop><stop offset="50%" stop-color="rgb(0,153,255)"></stop><stop offset="100%" stop-color="rgb(0,115,255)"></stop></linearGradient><linearGradient id="__lottie_element_2300" spreadMethod="pad" gradientUnits="userSpaceOnUse" x1="-10.687000274658203" y1="-42.74800109863281" x2="14.121999740600586" y2="-23.281999588012695"><stop offset="0%" stop-color="rgb(0,191,255)"></stop><stop offset="50%" stop-color="rgb(0,153,255)"></stop><stop offset="100%" stop-color="rgb(0,115,255)"></stop></linearGradient></defs><g clip-path="url(#__lottie_element_2217)"><g style="display: block;" transform="matrix(1,0,0,1,-5.97900390625,87.31997680664062)" opacity="1"><g opacity="1" transform="matrix(1,0,0,1,231.38400268554688,220.0800018310547)"><path stroke="url(#__lottie_element_2221)" stroke-linecap="round" stroke-linejoin="round" fill-opacity="0" stroke-opacity="1" stroke-width="12" d=" M143.093994140625,98.0199966430664 C143.093994140625,98.0199966430664 -94.07599639892578,97.66899871826172 -94.07599639892578,97.66899871826172 C-113.01599884033203,97.66899871826172 -128.36900329589844,82.31600189208984 -128.36900329589844,63.375999450683594 C-128.36900329589844,63.375999450683594 -128.42599487304688,63.643001556396484 -128.42599487304688,63.643001556396484 C-128.42599487304688,44.702999114990234 -113.072998046875,29.350000381469727 -94.13300323486328,29.350000381469727 C-94.13300323486328,29.350000381469727 143.322998046875,29.70199966430664 143.322998046875,29.70199966430664 C162.26300048828125,29.70199966430664 177.61599731445312,45.055999755859375 177.61599731445312,63.994998931884766 C177.61599731445312,63.994998931884766 177.38699340820312,63.72700119018555 177.38699340820312,63.72700119018555 C177.38699340820312,82.66699981689453 162.03399658203125,98.0199966430664 143.093994140625,98.0199966430664z"></path></g></g><g clip-path="url(#__lottie_element_2223)" style="display: block;" transform="matrix(1,0,0,1,136,351)" opacity="1"><g style="display: block;" transform="matrix(1.4500000476837158,0,0,1.4500000476837158,200.25,-156)" opacity="0.2"><g opacity="1" transform="matrix(1,0,0,1,-125,120)"><path fill="rgb(0,0,0)" fill-opacity="1" d=" M0,-8.5 C4.691150188446045,-8.5 8.5,-4.691150188446045 8.5,0 C8.5,4.691150188446045 4.691150188446045,8.5 0,8.5 C-4.691150188446045,8.5 -8.5,4.691150188446045 -8.5,0 C-8.5,-4.691150188446045 -4.691150188446045,-8.5 0,-8.5z"></path></g></g><g style="display: none;" transform="matrix(1.309999942779541,0,0,1.309999942779541,18,62.44239807128906)" opacity="1"><g opacity="1" transform="matrix(1,0,0,1,0,0)"><path fill="url(#__lottie_element_2288)" fill-opacity="1" d=" M-3.049999952316284,-23.363000869750977 C-2.6640000343322754,-23.402999877929688 -2.3889999389648438,-23.56599998474121 -2.2260000705718994,-23.85099983215332 C-2.186000108718872,-23.93199920654297 -2.1449999809265137,-23.993000030517578 -2.1040000915527344,-24.034000396728516 C-2.063999891281128,-24.073999404907227 -2.0230000019073486,-24.1560001373291 -1.9819999933242798,-24.277999877929688 C-1.9819999933242798,-24.277999877929688 -0.029999999329447746,-29.097000122070312 -0.029999999329447746,-29.097000122070312 C-0.029999999329447746,-29.097000122070312 1.9830000400543213,-24.277999877929688 1.9830000400543213,-24.277999877929688 C2.063999891281128,-24.1560001373291 2.125,-24.073999404907227 2.1659998893737793,-24.034000396728516 C2.2060000896453857,-23.993000030517578 2.2269999980926514,-23.93199920654297 2.2269999980926514,-23.85099983215332 C2.430000066757202,-23.56599998474121 2.7149999141693115,-23.402999877929688 3.0810000896453857,-23.363000869750977 C3.447000026702881,-23.32200050354004 3.7920000553131104,-23.382999420166016 4.118000030517578,-23.54599952697754 C4.118000030517578,-23.54599952697754 8.510000228881836,-26.84000015258789 8.510000228881836,-26.84000015258789 C8.835000038146973,-27.042999267578125 9.017999649047852,-27.327999114990234 9.059000015258789,-27.694000244140625 C9.098999977111816,-28.059999465942383 9.017999649047852,-28.385000228881836 8.8149995803833,-28.670000076293945 C8.8149995803833,-28.709999084472656 8.713000297546387,-28.832000732421875 8.510000228881836,-29.035999298095703 C8.510000228881836,-29.035999298095703 4.545000076293945,-32.33000183105469 4.545000076293945,-32.33000183105469 C4.545000076293945,-32.33000183105469 9.729999542236328,-32.75699996948242 9.729999542236328,-32.75699996948242 C9.85200023651123,-32.797000885009766 9.942999839782715,-32.82699966430664 10.003999710083008,-32.847999572753906 C10.0649995803833,-32.86800003051758 10.116000175476074,-32.87900161743164 10.156999588012695,-32.87900161743164 C10.482000350952148,-32.959999084472656 10.736000061035156,-33.17399978637695 10.918999671936035,-33.52000045776367 C11.10200023651123,-33.8650016784668 11.152999877929688,-34.22100067138672 11.071999549865723,-34.58700180053711 C11.071999549865723,-34.58700180053711 9.303000450134277,-39.77199935913086 9.303000450134277,-39.77199935913086 C9.220999717712402,-40.09700012207031 9.006999969482422,-40.340999603271484 8.661999702453613,-40.50400161743164 C8.315999984741211,-40.66600036621094 7.980999946594238,-40.707000732421875 7.656000137329102,-40.625999450683594 C7.614999771118164,-40.625999450683594 7.452000141143799,-40.564998626708984 7.168000221252441,-40.44300079345703 C7.168000221252441,-40.44300079345703 2.7760000228881836,-37.698001861572266 2.7760000228881836,-37.698001861572266 C2.7760000228881836,-37.698001861572266 3.996000051498413,-42.70000076293945 3.996000051498413,-42.70000076293945 C4.035999774932861,-42.821998596191406 4.057000160217285,-42.92300033569336 4.057000160217285,-43.005001068115234 C4.057000160217285,-43.08599853515625 4.057000160217285,-43.14699935913086 4.057000160217285,-43.1879997253418 C4.057000160217285,-43.51300048828125 3.9240000247955322,-43.81800079345703 3.6600000858306885,-44.10300064086914 C3.3949999809265137,-44.387001037597656 3.0810000896453857,-44.529998779296875 2.7149999141693115,-44.529998779296875 C2.7149999141693115,-44.529998779296875 -2.7750000953674316,-44.529998779296875 -2.7750000953674316,-44.529998779296875 C-3.1410000324249268,-44.529998779296875 -3.4570000171661377,-44.387001037597656 -3.7209999561309814,-44.10300064086914 C-3.9860000610351562,-43.81800079345703 -4.117000102996826,-43.51300048828125 -4.117000102996826,-43.1879997253418 C-4.117000102996826,-43.14699935913086 -4.117000102996826,-43.08599853515625 -4.117000102996826,-43.005001068115234 C-4.117000102996826,-42.92300033569336 -4.0970001220703125,-42.821998596191406 -4.056000232696533,-42.70000076293945 C-4.056000232696533,-42.70000076293945 -2.8359999656677246,-37.698001861572266 -2.8359999656677246,-37.698001861572266 C-2.8359999656677246,-37.698001861572266 -7.166999816894531,-40.44300079345703 -7.166999816894531,-40.44300079345703 C-7.452000141143799,-40.564998626708984 -7.614999771118164,-40.625999450683594 -7.65500020980835,-40.625999450683594 C-7.940000057220459,-40.707000732421875 -8.265000343322754,-40.66600036621094 -8.630999565124512,-40.50400161743164 C-8.996999740600586,-40.340999603271484 -9.220999717712402,-40.09700012207031 -9.302000045776367,-39.77199935913086 C-9.302000045776367,-39.77199935913086 -11.071000099182129,-34.58700180053711 -11.071000099182129,-34.58700180053711 C-11.152999877929688,-34.22100067138672 -11.10200023651123,-33.8650016784668 -10.918999671936035,-33.52000045776367 C-10.736000061035156,-33.17399978637695 -10.482000350952148,-32.959999084472656 -10.156000137329102,-32.87900161743164 C-10.116000175476074,-32.87900161743164 -10.0649995803833,-32.86800003051758 -10.003999710083008,-32.847999572753906 C-9.942999839782715,-32.82699966430664 -9.85099983215332,-32.797000885009766 -9.729000091552734,-32.75699996948242 C-9.729000091552734,-32.75699996948242 -4.544000148773193,-32.33000183105469 -4.544000148773193,-32.33000183105469 C-4.544000148773193,-32.33000183105469 -8.508999824523926,-29.035999298095703 -8.508999824523926,-29.035999298095703 C-8.713000297546387,-28.832000732421875 -8.814000129699707,-28.709999084472656 -8.814000129699707,-28.670000076293945 C-8.97700023651123,-28.385000228881836 -9.038000106811523,-28.059999465942383 -8.996999740600586,-27.694000244140625 C-8.956999778747559,-27.327999114990234 -8.793999671936035,-27.042999267578125 -8.508999824523926,-26.84000015258789 C-8.508999824523926,-26.84000015258789 -4.117000102996826,-23.54599952697754 -4.117000102996826,-23.54599952697754 C-3.7920000553131104,-23.382999420166016 -3.437000036239624,-23.32200050354004 -3.049999952316284,-23.363000869750977z"></path></g></g></g><g clip-path="url(#__lottie_element_2227)" style="display: block;" transform="matrix(1,0,0,1,202,351)" opacity="1"><g style="display: block;" transform="matrix(1.4500000476837158,0,0,1.4500000476837158,200.25,-156)" opacity="0.2"><g opacity="1" transform="matrix(1,0,0,1,-125,120)"><path fill="rgb(0,0,0)" fill-opacity="1" d=" M0,-8.5 C4.691150188446045,-8.5 8.5,-4.691150188446045 8.5,0 C8.5,4.691150188446045 4.691150188446045,8.5 0,8.5 C-4.691150188446045,8.5 -8.5,4.691150188446045 -8.5,0 C-8.5,-4.691150188446045 -4.691150188446045,-8.5 0,-8.5z"></path></g></g><g style="display: none;" transform="matrix(1.309999942779541,0,0,1.309999942779541,18,62.44239807128906)" opacity="1"><g opacity="1" transform="matrix(1,0,0,1,0,0)"><path fill="url(#__lottie_element_2292)" fill-opacity="1" d=" M-3.049999952316284,-23.363000869750977 C-2.6640000343322754,-23.402999877929688 -2.3889999389648438,-23.56599998474121 -2.2260000705718994,-23.85099983215332 C-2.186000108718872,-23.93199920654297 -2.1449999809265137,-23.993000030517578 -2.1040000915527344,-24.034000396728516 C-2.063999891281128,-24.073999404907227 -2.0230000019073486,-24.1560001373291 -1.9819999933242798,-24.277999877929688 C-1.9819999933242798,-24.277999877929688 -0.029999999329447746,-29.097000122070312 -0.029999999329447746,-29.097000122070312 C-0.029999999329447746,-29.097000122070312 1.9830000400543213,-24.277999877929688 1.9830000400543213,-24.277999877929688 C2.063999891281128,-24.1560001373291 2.125,-24.073999404907227 2.1659998893737793,-24.034000396728516 C2.2060000896453857,-23.993000030517578 2.2269999980926514,-23.93199920654297 2.2269999980926514,-23.85099983215332 C2.430000066757202,-23.56599998474121 2.7149999141693115,-23.402999877929688 3.0810000896453857,-23.363000869750977 C3.447000026702881,-23.32200050354004 3.7920000553131104,-23.382999420166016 4.118000030517578,-23.54599952697754 C4.118000030517578,-23.54599952697754 8.510000228881836,-26.84000015258789 8.510000228881836,-26.84000015258789 C8.835000038146973,-27.042999267578125 9.017999649047852,-27.327999114990234 9.059000015258789,-27.694000244140625 C9.098999977111816,-28.059999465942383 9.017999649047852,-28.385000228881836 8.8149995803833,-28.670000076293945 C8.8149995803833,-28.709999084472656 8.713000297546387,-28.832000732421875 8.510000228881836,-29.035999298095703 C8.510000228881836,-29.035999298095703 4.545000076293945,-32.33000183105469 4.545000076293945,-32.33000183105469 C4.545000076293945,-32.33000183105469 9.729999542236328,-32.75699996948242 9.729999542236328,-32.75699996948242 C9.85200023651123,-32.797000885009766 9.942999839782715,-32.82699966430664 10.003999710083008,-32.847999572753906 C10.0649995803833,-32.86800003051758 10.116000175476074,-32.87900161743164 10.156999588012695,-32.87900161743164 C10.482000350952148,-32.959999084472656 10.736000061035156,-33.17399978637695 10.918999671936035,-33.52000045776367 C11.10200023651123,-33.8650016784668 11.152999877929688,-34.22100067138672 11.071999549865723,-34.58700180053711 C11.071999549865723,-34.58700180053711 9.303000450134277,-39.77199935913086 9.303000450134277,-39.77199935913086 C9.220999717712402,-40.09700012207031 9.006999969482422,-40.340999603271484 8.661999702453613,-40.50400161743164 C8.315999984741211,-40.66600036621094 7.980999946594238,-40.707000732421875 7.656000137329102,-40.625999450683594 C7.614999771118164,-40.625999450683594 7.452000141143799,-40.564998626708984 7.168000221252441,-40.44300079345703 C7.168000221252441,-40.44300079345703 2.7760000228881836,-37.698001861572266 2.7760000228881836,-37.698001861572266 C2.7760000228881836,-37.698001861572266 3.996000051498413,-42.70000076293945 3.996000051498413,-42.70000076293945 C4.035999774932861,-42.821998596191406 4.057000160217285,-42.92300033569336 4.057000160217285,-43.005001068115234 C4.057000160217285,-43.08599853515625 4.057000160217285,-43.14699935913086 4.057000160217285,-43.1879997253418 C4.057000160217285,-43.51300048828125 3.9240000247955322,-43.81800079345703 3.6600000858306885,-44.10300064086914 C3.3949999809265137,-44.387001037597656 3.0810000896453857,-44.529998779296875 2.7149999141693115,-44.529998779296875 C2.7149999141693115,-44.529998779296875 -2.7750000953674316,-44.529998779296875 -2.7750000953674316,-44.529998779296875 C-3.1410000324249268,-44.529998779296875 -3.4570000171661377,-44.387001037597656 -3.7209999561309814,-44.10300064086914 C-3.9860000610351562,-43.81800079345703 -4.117000102996826,-43.51300048828125 -4.117000102996826,-43.1879997253418 C-4.117000102996826,-43.14699935913086 -4.117000102996826,-43.08599853515625 -4.117000102996826,-43.005001068115234 C-4.117000102996826,-42.92300033569336 -4.0970001220703125,-42.821998596191406 -4.056000232696533,-42.70000076293945 C-4.056000232696533,-42.70000076293945 -2.8359999656677246,-37.698001861572266 -2.8359999656677246,-37.698001861572266 C-2.8359999656677246,-37.698001861572266 -7.166999816894531,-40.44300079345703 -7.166999816894531,-40.44300079345703 C-7.452000141143799,-40.564998626708984 -7.614999771118164,-40.625999450683594 -7.65500020980835,-40.625999450683594 C-7.940000057220459,-40.707000732421875 -8.265000343322754,-40.66600036621094 -8.630999565124512,-40.50400161743164 C-8.996999740600586,-40.340999603271484 -9.220999717712402,-40.09700012207031 -9.302000045776367,-39.77199935913086 C-9.302000045776367,-39.77199935913086 -11.071000099182129,-34.58700180053711 -11.071000099182129,-34.58700180053711 C-11.152999877929688,-34.22100067138672 -11.10200023651123,-33.8650016784668 -10.918999671936035,-33.52000045776367 C-10.736000061035156,-33.17399978637695 -10.482000350952148,-32.959999084472656 -10.156000137329102,-32.87900161743164 C-10.116000175476074,-32.87900161743164 -10.0649995803833,-32.86800003051758 -10.003999710083008,-32.847999572753906 C-9.942999839782715,-32.82699966430664 -9.85099983215332,-32.797000885009766 -9.729000091552734,-32.75699996948242 C-9.729000091552734,-32.75699996948242 -4.544000148773193,-32.33000183105469 -4.544000148773193,-32.33000183105469 C-4.544000148773193,-32.33000183105469 -8.508999824523926,-29.035999298095703 -8.508999824523926,-29.035999298095703 C-8.713000297546387,-28.832000732421875 -8.814000129699707,-28.709999084472656 -8.814000129699707,-28.670000076293945 C-8.97700023651123,-28.385000228881836 -9.038000106811523,-28.059999465942383 -8.996999740600586,-27.694000244140625 C-8.956999778747559,-27.327999114990234 -8.793999671936035,-27.042999267578125 -8.508999824523926,-26.84000015258789 C-8.508999824523926,-26.84000015258789 -4.117000102996826,-23.54599952697754 -4.117000102996826,-23.54599952697754 C-3.7920000553131104,-23.382999420166016 -3.437000036239624,-23.32200050354004 -3.049999952316284,-23.363000869750977z"></path></g></g></g><g clip-path="url(#__lottie_element_2231)" style="display: block;" transform="matrix(1,0,0,1,268,351)" opacity="1"><g style="display: block;" transform="matrix(1.4500000476837158,0,0,1.4500000476837158,200.25,-156)" opacity="0.2"><g opacity="1" transform="matrix(1,0,0,1,-125,120)"><path fill="rgb(0,0,0)" fill-opacity="1" d=" M0,-8.5 C4.691150188446045,-8.5 8.5,-4.691150188446045 8.5,0 C8.5,4.691150188446045 4.691150188446045,8.5 0,8.5 C-4.691150188446045,8.5 -8.5,4.691150188446045 -8.5,0 C-8.5,-4.691150188446045 -4.691150188446045,-8.5 0,-8.5z"></path></g></g><g style="display: none;" transform="matrix(1.309999942779541,0,0,1.309999942779541,18,62.44239807128906)" opacity="1"><g opacity="1" transform="matrix(1,0,0,1,0,0)"><path fill="url(#__lottie_element_2296)" fill-opacity="1" d=" M-3.049999952316284,-23.363000869750977 C-2.6640000343322754,-23.402999877929688 -2.3889999389648438,-23.56599998474121 -2.2260000705718994,-23.85099983215332 C-2.186000108718872,-23.93199920654297 -2.1449999809265137,-23.993000030517578 -2.1040000915527344,-24.034000396728516 C-2.063999891281128,-24.073999404907227 -2.0230000019073486,-24.1560001373291 -1.9819999933242798,-24.277999877929688 C-1.9819999933242798,-24.277999877929688 -0.029999999329447746,-29.097000122070312 -0.029999999329447746,-29.097000122070312 C-0.029999999329447746,-29.097000122070312 1.9830000400543213,-24.277999877929688 1.9830000400543213,-24.277999877929688 C2.063999891281128,-24.1560001373291 2.125,-24.073999404907227 2.1659998893737793,-24.034000396728516 C2.2060000896453857,-23.993000030517578 2.2269999980926514,-23.93199920654297 2.2269999980926514,-23.85099983215332 C2.430000066757202,-23.56599998474121 2.7149999141693115,-23.402999877929688 3.0810000896453857,-23.363000869750977 C3.447000026702881,-23.32200050354004 3.7920000553131104,-23.382999420166016 4.118000030517578,-23.54599952697754 C4.118000030517578,-23.54599952697754 8.510000228881836,-26.84000015258789 8.510000228881836,-26.84000015258789 C8.835000038146973,-27.042999267578125 9.017999649047852,-27.327999114990234 9.059000015258789,-27.694000244140625 C9.098999977111816,-28.059999465942383 9.017999649047852,-28.385000228881836 8.8149995803833,-28.670000076293945 C8.8149995803833,-28.709999084472656 8.713000297546387,-28.832000732421875 8.510000228881836,-29.035999298095703 C8.510000228881836,-29.035999298095703 4.545000076293945,-32.33000183105469 4.545000076293945,-32.33000183105469 C4.545000076293945,-32.33000183105469 9.729999542236328,-32.75699996948242 9.729999542236328,-32.75699996948242 C9.85200023651123,-32.797000885009766 9.942999839782715,-32.82699966430664 10.003999710083008,-32.847999572753906 C10.0649995803833,-32.86800003051758 10.116000175476074,-32.87900161743164 10.156999588012695,-32.87900161743164 C10.482000350952148,-32.959999084472656 10.736000061035156,-33.17399978637695 10.918999671936035,-33.52000045776367 C11.10200023651123,-33.8650016784668 11.152999877929688,-34.22100067138672 11.071999549865723,-34.58700180053711 C11.071999549865723,-34.58700180053711 9.303000450134277,-39.77199935913086 9.303000450134277,-39.77199935913086 C9.220999717712402,-40.09700012207031 9.006999969482422,-40.340999603271484 8.661999702453613,-40.50400161743164 C8.315999984741211,-40.66600036621094 7.980999946594238,-40.707000732421875 7.656000137329102,-40.625999450683594 C7.614999771118164,-40.625999450683594 7.452000141143799,-40.564998626708984 7.168000221252441,-40.44300079345703 C7.168000221252441,-40.44300079345703 2.7760000228881836,-37.698001861572266 2.7760000228881836,-37.698001861572266 C2.7760000228881836,-37.698001861572266 3.996000051498413,-42.70000076293945 3.996000051498413,-42.70000076293945 C4.035999774932861,-42.821998596191406 4.057000160217285,-42.92300033569336 4.057000160217285,-43.005001068115234 C4.057000160217285,-43.08599853515625 4.057000160217285,-43.14699935913086 4.057000160217285,-43.1879997253418 C4.057000160217285,-43.51300048828125 3.9240000247955322,-43.81800079345703 3.6600000858306885,-44.10300064086914 C3.3949999809265137,-44.387001037597656 3.0810000896453857,-44.529998779296875 2.7149999141693115,-44.529998779296875 C2.7149999141693115,-44.529998779296875 -2.7750000953674316,-44.529998779296875 -2.7750000953674316,-44.529998779296875 C-3.1410000324249268,-44.529998779296875 -3.4570000171661377,-44.387001037597656 -3.7209999561309814,-44.10300064086914 C-3.9860000610351562,-43.81800079345703 -4.117000102996826,-43.51300048828125 -4.117000102996826,-43.1879997253418 C-4.117000102996826,-43.14699935913086 -4.117000102996826,-43.08599853515625 -4.117000102996826,-43.005001068115234 C-4.117000102996826,-42.92300033569336 -4.0970001220703125,-42.821998596191406 -4.056000232696533,-42.70000076293945 C-4.056000232696533,-42.70000076293945 -2.8359999656677246,-37.698001861572266 -2.8359999656677246,-37.698001861572266 C-2.8359999656677246,-37.698001861572266 -7.166999816894531,-40.44300079345703 -7.166999816894531,-40.44300079345703 C-7.452000141143799,-40.564998626708984 -7.614999771118164,-40.625999450683594 -7.65500020980835,-40.625999450683594 C-7.940000057220459,-40.707000732421875 -8.265000343322754,-40.66600036621094 -8.630999565124512,-40.50400161743164 C-8.996999740600586,-40.340999603271484 -9.220999717712402,-40.09700012207031 -9.302000045776367,-39.77199935913086 C-9.302000045776367,-39.77199935913086 -11.071000099182129,-34.58700180053711 -11.071000099182129,-34.58700180053711 C-11.152999877929688,-34.22100067138672 -11.10200023651123,-33.8650016784668 -10.918999671936035,-33.52000045776367 C-10.736000061035156,-33.17399978637695 -10.482000350952148,-32.959999084472656 -10.156000137329102,-32.87900161743164 C-10.116000175476074,-32.87900161743164 -10.0649995803833,-32.86800003051758 -10.003999710083008,-32.847999572753906 C-9.942999839782715,-32.82699966430664 -9.85099983215332,-32.797000885009766 -9.729000091552734,-32.75699996948242 C-9.729000091552734,-32.75699996948242 -4.544000148773193,-32.33000183105469 -4.544000148773193,-32.33000183105469 C-4.544000148773193,-32.33000183105469 -8.508999824523926,-29.035999298095703 -8.508999824523926,-29.035999298095703 C-8.713000297546387,-28.832000732421875 -8.814000129699707,-28.709999084472656 -8.814000129699707,-28.670000076293945 C-8.97700023651123,-28.385000228881836 -9.038000106811523,-28.059999465942383 -8.996999740600586,-27.694000244140625 C-8.956999778747559,-27.327999114990234 -8.793999671936035,-27.042999267578125 -8.508999824523926,-26.84000015258789 C-8.508999824523926,-26.84000015258789 -4.117000102996826,-23.54599952697754 -4.117000102996826,-23.54599952697754 C-3.7920000553131104,-23.382999420166016 -3.437000036239624,-23.32200050354004 -3.049999952316284,-23.363000869750977z"></path></g></g></g><g clip-path="url(#__lottie_element_2235)" style="display: block;" transform="matrix(1,0,0,1,334,351)" opacity="1"><g style="display: block;" transform="matrix(1.4500000476837158,0,0,1.4500000476837158,200.25,-156)" opacity="0.2"><g opacity="1" transform="matrix(1,0,0,1,-125,120)"><path fill="rgb(0,0,0)" fill-opacity="1" d=" M0,-8.5 C4.691150188446045,-8.5 8.5,-4.691150188446045 8.5,0 C8.5,4.691150188446045 4.691150188446045,8.5 0,8.5 C-4.691150188446045,8.5 -8.5,4.691150188446045 -8.5,0 C-8.5,-4.691150188446045 -4.691150188446045,-8.5 0,-8.5z"></path></g></g><g style="display: none;" transform="matrix(1.309999942779541,0,0,1.309999942779541,18,62.44239807128906)" opacity="1"><g opacity="1" transform="matrix(1,0,0,1,0,0)"><path fill="url(#__lottie_element_2300)" fill-opacity="1" d=" M-3.049999952316284,-23.363000869750977 C-2.6640000343322754,-23.402999877929688 -2.3889999389648438,-23.56599998474121 -2.2260000705718994,-23.85099983215332 C-2.186000108718872,-23.93199920654297 -2.1449999809265137,-23.993000030517578 -2.1040000915527344,-24.034000396728516 C-2.063999891281128,-24.073999404907227 -2.0230000019073486,-24.1560001373291 -1.9819999933242798,-24.277999877929688 C-1.9819999933242798,-24.277999877929688 -0.029999999329447746,-29.097000122070312 -0.029999999329447746,-29.097000122070312 C-0.029999999329447746,-29.097000122070312 1.9830000400543213,-24.277999877929688 1.9830000400543213,-24.277999877929688 C2.063999891281128,-24.1560001373291 2.125,-24.073999404907227 2.1659998893737793,-24.034000396728516 C2.2060000896453857,-23.993000030517578 2.2269999980926514,-23.93199920654297 2.2269999980926514,-23.85099983215332 C2.430000066757202,-23.56599998474121 2.7149999141693115,-23.402999877929688 3.0810000896453857,-23.363000869750977 C3.447000026702881,-23.32200050354004 3.7920000553131104,-23.382999420166016 4.118000030517578,-23.54599952697754 C4.118000030517578,-23.54599952697754 8.510000228881836,-26.84000015258789 8.510000228881836,-26.84000015258789 C8.835000038146973,-27.042999267578125 9.017999649047852,-27.327999114990234 9.059000015258789,-27.694000244140625 C9.098999977111816,-28.059999465942383 9.017999649047852,-28.385000228881836 8.8149995803833,-28.670000076293945 C8.8149995803833,-28.709999084472656 8.713000297546387,-28.832000732421875 8.510000228881836,-29.035999298095703 C8.510000228881836,-29.035999298095703 4.545000076293945,-32.33000183105469 4.545000076293945,-32.33000183105469 C4.545000076293945,-32.33000183105469 9.729999542236328,-32.75699996948242 9.729999542236328,-32.75699996948242 C9.85200023651123,-32.797000885009766 9.942999839782715,-32.82699966430664 10.003999710083008,-32.847999572753906 C10.0649995803833,-32.86800003051758 10.116000175476074,-32.87900161743164 10.156999588012695,-32.87900161743164 C10.482000350952148,-32.959999084472656 10.736000061035156,-33.17399978637695 10.918999671936035,-33.52000045776367 C11.10200023651123,-33.8650016784668 11.152999877929688,-34.22100067138672 11.071999549865723,-34.58700180053711 C11.071999549865723,-34.58700180053711 9.303000450134277,-39.77199935913086 9.303000450134277,-39.77199935913086 C9.220999717712402,-40.09700012207031 9.006999969482422,-40.340999603271484 8.661999702453613,-40.50400161743164 C8.315999984741211,-40.66600036621094 7.980999946594238,-40.707000732421875 7.656000137329102,-40.625999450683594 C7.614999771118164,-40.625999450683594 7.452000141143799,-40.564998626708984 7.168000221252441,-40.44300079345703 C7.168000221252441,-40.44300079345703 2.7760000228881836,-37.698001861572266 2.7760000228881836,-37.698001861572266 C2.7760000228881836,-37.698001861572266 3.996000051498413,-42.70000076293945 3.996000051498413,-42.70000076293945 C4.035999774932861,-42.821998596191406 4.057000160217285,-42.92300033569336 4.057000160217285,-43.005001068115234 C4.057000160217285,-43.08599853515625 4.057000160217285,-43.14699935913086 4.057000160217285,-43.1879997253418 C4.057000160217285,-43.51300048828125 3.9240000247955322,-43.81800079345703 3.6600000858306885,-44.10300064086914 C3.3949999809265137,-44.387001037597656 3.0810000896453857,-44.529998779296875 2.7149999141693115,-44.529998779296875 C2.7149999141693115,-44.529998779296875 -2.7750000953674316,-44.529998779296875 -2.7750000953674316,-44.529998779296875 C-3.1410000324249268,-44.529998779296875 -3.4570000171661377,-44.387001037597656 -3.7209999561309814,-44.10300064086914 C-3.9860000610351562,-43.81800079345703 -4.117000102996826,-43.51300048828125 -4.117000102996826,-43.1879997253418 C-4.117000102996826,-43.14699935913086 -4.117000102996826,-43.08599853515625 -4.117000102996826,-43.005001068115234 C-4.117000102996826,-42.92300033569336 -4.0970001220703125,-42.821998596191406 -4.056000232696533,-42.70000076293945 C-4.056000232696533,-42.70000076293945 -2.8359999656677246,-37.698001861572266 -2.8359999656677246,-37.698001861572266 C-2.8359999656677246,-37.698001861572266 -7.166999816894531,-40.44300079345703 -7.166999816894531,-40.44300079345703 C-7.452000141143799,-40.564998626708984 -7.614999771118164,-40.625999450683594 -7.65500020980835,-40.625999450683594 C-7.940000057220459,-40.707000732421875 -8.265000343322754,-40.66600036621094 -8.630999565124512,-40.50400161743164 C-8.996999740600586,-40.340999603271484 -9.220999717712402,-40.09700012207031 -9.302000045776367,-39.77199935913086 C-9.302000045776367,-39.77199935913086 -11.071000099182129,-34.58700180053711 -11.071000099182129,-34.58700180053711 C-11.152999877929688,-34.22100067138672 -11.10200023651123,-33.8650016784668 -10.918999671936035,-33.52000045776367 C-10.736000061035156,-33.17399978637695 -10.482000350952148,-32.959999084472656 -10.156000137329102,-32.87900161743164 C-10.116000175476074,-32.87900161743164 -10.0649995803833,-32.86800003051758 -10.003999710083008,-32.847999572753906 C-9.942999839782715,-32.82699966430664 -9.85099983215332,-32.797000885009766 -9.729000091552734,-32.75699996948242 C-9.729000091552734,-32.75699996948242 -4.544000148773193,-32.33000183105469 -4.544000148773193,-32.33000183105469 C-4.544000148773193,-32.33000183105469 -8.508999824523926,-29.035999298095703 -8.508999824523926,-29.035999298095703 C-8.713000297546387,-28.832000732421875 -8.814000129699707,-28.709999084472656 -8.814000129699707,-28.670000076293945 C-8.97700023651123,-28.385000228881836 -9.038000106811523,-28.059999465942383 -8.996999740600586,-27.694000244140625 C-8.956999778747559,-27.327999114990234 -8.793999671936035,-27.042999267578125 -8.508999824523926,-26.84000015258789 C-8.508999824523926,-26.84000015258789 -4.117000102996826,-23.54599952697754 -4.117000102996826,-23.54599952697754 C-3.7920000553131104,-23.382999420166016 -3.437000036239624,-23.32200050354004 -3.049999952316284,-23.363000869750977z"></path></g></g></g><g clip-path="url(#__lottie_element_2239)" style="display: block;" transform="matrix(1.2553002834320068,0.1926686316728592,-0.1926686316728592,1.2553002834320068,189.02261352539062,54.86762237548828)" opacity="1"><g style="display: block;" transform="matrix(1,0,0,1,-289.5,-198.5)" opacity="1"><g class="ai" opacity="1" transform="matrix(1,0,0,1,0,0)"><g opacity="1" transform="matrix(1,0,0,1,347.1629943847656,252.45899963378906)"><path stroke-linecap="round" stroke-linejoin="round" fill-opacity="0" stroke="rgb(15,22,66)" stroke-opacity="1" stroke-width="12" d=" M30.902000427246094,35.45800018310547 C30.902000427246094,35.45800018310547 -30.902000427246094,35.45800018310547 -30.902000427246094,35.45800018310547 C-30.902000427246094,35.45800018310547 -30.902000427246094,-4.556000232696533 -30.902000427246094,-4.556000232696533 C-30.902000427246094,-21.62299919128418 -17.066999435424805,-35.45800018310547 0,-35.45800018310547 C17.066999435424805,-35.45800018310547 30.902000427246094,-21.62299919128418 30.902000427246094,-4.556000232696533 C30.902000427246094,-4.556000232696533 30.902000427246094,35.45800018310547 30.902000427246094,35.45800018310547z"></path></g></g></g><g style="display: block;" transform="matrix(-1,0,0,1,404.2960205078125,-198.50001525878906)" opacity="1"><g opacity="1" transform="matrix(1,0,0,1,346.89801025390625,320.8680114746094)"><path fill="url(#__lottie_element_2268)" fill-opacity="1" d=" M0,45.444000244140625 C0,45.444000244140625 0,45.444000244140625 0,45.444000244140625 C-29.719999313354492,45.444000244140625 -53.8129997253418,21.35099983215332 -53.8129997253418,-8.369000434875488 C-53.8129997253418,-8.369000434875488 -53.8129997253418,-29.63599967956543 -53.8129997253418,-29.63599967956543 C-53.8129997253418,-38.36600112915039 -46.736000061035156,-45.44300079345703 -38.00699996948242,-45.44300079345703 C-38.00699996948242,-45.44300079345703 38.00699996948242,-45.44300079345703 38.00699996948242,-45.44300079345703 C46.736000061035156,-45.44300079345703 53.8129997253418,-38.36600112915039 53.8129997253418,-29.63599967956543 C53.8129997253418,-29.63599967956543 53.8129997253418,-8.369000434875488 53.8129997253418,-8.369000434875488 C53.8129997253418,21.35099983215332 29.719999313354492,45.444000244140625 0,45.444000244140625z"></path></g></g><g style="display: block;" transform="matrix(-1,0,0,1,57.2960205078125,86.99998474121094)" opacity="1"><g opacity="1" transform="matrix(1,0,0,1,1,35.25)"><path fill="url(#__lottie_element_2272)" fill-opacity="1" d=" M0,-45 C0,-45 0,45 0,45 C0,45 0,45 0,45 C0,45 0,-45 0,-45 C0,-45 0,-45 0,-45z"></path></g></g><g style="display: block;" transform="matrix(-1,0,0,1,404.2960205078125,-198.50001525878906)" opacity="1"><g opacity="1" transform="matrix(1,0,0,1,346.89801025390625,320.8680114746094)"><path fill="url(#__lottie_element_2265)" fill-opacity="1" d=" M0,45.444000244140625 C0,45.444000244140625 0,45.444000244140625 0,45.444000244140625 C-29.719999313354492,45.444000244140625 -53.8129997253418,21.35099983215332 -53.8129997253418,-8.369000434875488 C-53.8129997253418,-8.369000434875488 -53.8129997253418,-29.63599967956543 -53.8129997253418,-29.63599967956543 C-53.8129997253418,-38.36600112915039 -46.736000061035156,-45.44300079345703 -38.00699996948242,-45.44300079345703 C-38.00699996948242,-45.44300079345703 38.00699996948242,-45.44300079345703 38.00699996948242,-45.44300079345703 C46.736000061035156,-45.44300079345703 53.8129997253418,-38.36600112915039 53.8129997253418,-29.63599967956543 C53.8129997253418,-29.63599967956543 53.8129997253418,-8.369000434875488 53.8129997253418,-8.369000434875488 C53.8129997253418,21.35099983215332 29.719999313354492,45.444000244140625 0,45.444000244140625z"></path></g><g opacity="1" transform="matrix(1,0,0,1,347.66400146484375,320.8680114746094)"><path fill="rgb(255,255,255)" fill-opacity="1" d=" M9.758000373840332,-6.585000038146973 C9.758000373840332,-11.973999977111816 5.388999938964844,-16.343000411987305 0,-16.343000411987305 C-5.388999938964844,-16.343000411987305 -9.758000373840332,-11.973999977111816 -9.758000373840332,-6.585000038146973 C-9.758000373840332,-2.6489999294281006 -7.421999931335449,0.734000027179718 -4.065999984741211,2.2769999504089355 C-4.065999984741211,2.2769999504089355 -4.065999984741211,12.277000427246094 -4.065999984741211,12.277000427246094 C-4.065999984741211,14.52299976348877 -2.244999885559082,16.343000411987305 0,16.343000411987305 C2.246000051498413,16.343000411987305 4.065999984741211,14.52299976348877 4.065999984741211,12.277000427246094 C4.065999984741211,12.277000427246094 4.065999984741211,2.2769999504089355 4.065999984741211,2.2769999504089355 C7.421999931335449,0.734000027179718 9.758000373840332,-2.6489999294281006 9.758000373840332,-6.585000038146973z"></path></g></g></g><g clip-path="url(#__lottie_element_2243)" style="display: none;" transform="matrix(1,0,0,1,292.5,267.5)" opacity="1"><g style="display: block;" transform="matrix(0,0,0,0,9.795999526977539,9.022000312805176)" opacity="1"><g opacity="1" transform="matrix(1,0,0,1,9.515999794006348,9.35200023651123)"><path fill="url(#__lottie_element_2276)" fill-opacity="1" d=" M-1.4229999780654907,-8.111000061035156 C-1.4229999780654907,-8.111000061035156 -3.184000015258789,-3.3510000705718994 -3.184000015258789,-3.3510000705718994 C-3.184000015258789,-3.3510000705718994 -7.943999767303467,-1.590000033378601 -7.943999767303467,-1.590000033378601 C-9.265999794006348,-1.100000023841858 -9.265999794006348,0.7699999809265137 -7.943999767303467,1.2599999904632568 C-7.943999767303467,1.2599999904632568 -3.184000015258789,3.0199999809265137 -3.184000015258789,3.0199999809265137 C-3.184000015258789,3.0199999809265137 -1.4229999780654907,7.7789998054504395 -1.4229999780654907,7.7789998054504395 C-0.9340000152587891,9.10099983215332 0.9359999895095825,9.10099983215332 1.4249999523162842,7.7789998054504395 C1.4249999523162842,7.7789998054504395 3.186000108718872,3.0199999809265137 3.186000108718872,3.0199999809265137 C3.186000108718872,3.0199999809265137 7.945000171661377,1.2599999904632568 7.945000171661377,1.2599999904632568 C9.267000198364258,0.7699999809265137 9.267000198364258,-1.100000023841858 7.945000171661377,-1.590000033378601 C7.945000171661377,-1.590000033378601 3.186000108718872,-3.3510000705718994 3.186000108718872,-3.3510000705718994 C3.186000108718872,-3.3510000705718994 1.4249999523162842,-8.111000061035156 1.4249999523162842,-8.111000061035156 C1.1799999475479126,-8.772000312805176 0.5910000205039978,-9.10200023651123 0.0010000000474974513,-9.10200023651123 C-0.5889999866485596,-9.10200023651123 -1.1790000200271606,-8.772000312805176 -1.4229999780654907,-8.111000061035156z"></path></g></g></g><g clip-path="url(#__lottie_element_2278)" style="display: none;" transform="matrix(1.5,0,0,1.5,140.25,170.5)" opacity="1"><g style="display: block;" transform="matrix(0,0,0,0,9.795999526977539,9.022000312805176)" opacity="1"><g opacity="1" transform="matrix(1,0,0,1,9.515999794006348,9.35200023651123)"><path fill="url(#__lottie_element_2284)" fill-opacity="1" d=" M-1.4229999780654907,-8.111000061035156 C-1.4229999780654907,-8.111000061035156 -3.184000015258789,-3.3510000705718994 -3.184000015258789,-3.3510000705718994 C-3.184000015258789,-3.3510000705718994 -7.943999767303467,-1.590000033378601 -7.943999767303467,-1.590000033378601 C-9.265999794006348,-1.100000023841858 -9.265999794006348,0.7699999809265137 -7.943999767303467,1.2599999904632568 C-7.943999767303467,1.2599999904632568 -3.184000015258789,3.0199999809265137 -3.184000015258789,3.0199999809265137 C-3.184000015258789,3.0199999809265137 -1.4229999780654907,7.7789998054504395 -1.4229999780654907,7.7789998054504395 C-0.9340000152587891,9.10099983215332 0.9359999895095825,9.10099983215332 1.4249999523162842,7.7789998054504395 C1.4249999523162842,7.7789998054504395 3.186000108718872,3.0199999809265137 3.186000108718872,3.0199999809265137 C3.186000108718872,3.0199999809265137 7.945000171661377,1.2599999904632568 7.945000171661377,1.2599999904632568 C9.267000198364258,0.7699999809265137 9.267000198364258,-1.100000023841858 7.945000171661377,-1.590000033378601 C7.945000171661377,-1.590000033378601 3.186000108718872,-3.3510000705718994 3.186000108718872,-3.3510000705718994 C3.186000108718872,-3.3510000705718994 1.4249999523162842,-8.111000061035156 1.4249999523162842,-8.111000061035156 C1.1799999475479126,-8.772000312805176 0.5910000205039978,-9.10200023651123 0.0010000000474974513,-9.10200023651123 C-0.5889999866485596,-9.10200023651123 -1.1790000200271606,-8.772000312805176 -1.4229999780654907,-8.111000061035156z"></path></g></g></g></g></svg>